solid patch_1_0
 facet normal -1.0 0.0 0.0
  outer loop
   vertex 0.017750907897949218 0.1 0.0
   vertex 0.017750907897949218 0.065 0.0
   vertex 0.017750907897949218 0.1 0.01
  endloop
 endfacet
 facet normal -1.0 -0.0 0.0
  outer loop
   vertex 0.017750907897949218 0.1 0.01
   vertex 0.017750907897949218 0.065 0.0
   vertex 0.017750907897949218 0.065 0.01
  endloop
 endfacet
 facet normal 0.0 1.0 0.0
  outer loop
   vertex 0.17775091552734376 0.1 0.0
   vertex 0.017750907897949218 0.1 0.0
   vertex 0.017750907897949218 0.1 0.01
  endloop
 endfacet
 facet normal 0.0 1.0 -0.0
  outer loop
   vertex 0.17775091552734376 0.1 0.0
   vertex 0.017750907897949218 0.1 0.01
   vertex 0.17775091552734376 0.1 0.01
  endloop
 endfacet
 facet normal 1.0 0.0 0.0
  outer loop
   vertex 0.17775091552734376 0.065 0.0
   vertex 0.17775091552734376 0.1 0.0
   vertex 0.17775091552734376 0.1 0.01
  endloop
 endfacet
 facet normal 1.0 0.0 0.0
  outer loop
   vertex 0.17775091552734376 0.065 0.0
   vertex 0.17775091552734376 0.1 0.01
   vertex 0.17775091552734376 0.065 0.01
  endloop
 endfacet
 facet normal 1.0 0.0 0.0
  outer loop
   vertex 0.17775091552734376 0.0 0.0
   vertex 0.17775091552734376 0.035 0.0
   vertex 0.17775091552734376 0.0 0.01
  endloop
 endfacet
 facet normal 1.0 -0.0 0.0
  outer loop
   vertex 0.17775091552734376 0.0 0.01
   vertex 0.17775091552734376 0.035 0.0
   vertex 0.17775091552734376 0.035 0.01
  endloop
 endfacet
 facet normal 0.0 -1.0 0.0
  outer loop
   vertex 0.017750907897949218 0.0 0.0
   vertex 0.17775091552734376 0.0 0.0
   vertex 0.17775091552734376 0.0 0.01
  endloop
 endfacet
 facet normal 0.0 -1.0 0.0
  outer loop
   vertex 0.017750907897949218 0.0 0.0
   vertex 0.17775091552734376 0.0 0.01
   vertex 0.017750907897949218 0.0 0.01
  endloop
 endfacet
 facet normal -1.0 0.0 0.0
  outer loop
   vertex 0.017750907897949218 0.035 0.0
   vertex 0.017750907897949218 0.0 0.0
   vertex 0.017750907897949218 0.035 0.01
  endloop
 endfacet
 facet normal -1.0 -0.0 0.0
  outer loop
   vertex 0.017750907897949218 0.035 0.01
   vertex 0.017750907897949218 0.0 0.0
   vertex 0.017750907897949218 0.0 0.01
  endloop
 endfacet
endsolid patch_1_0
solid patch_2_0
 facet normal 0.0 0.0 -1.0
  outer loop
   vertex 0.017750907897949218 0.035 0.0
   vertex 0.04775090789794922 0.035 0.0
   vertex 0.017750907897949218 0.0 0.0
  endloop
 endfacet
 facet normal 0.0 0.0 -1.0
  outer loop
   vertex 0.017750907897949218 0.065 0.0
   vertex 0.017750907897949218 0.1 0.0
   vertex 0.04775090789794922 0.065 0.0
  endloop
 endfacet
 facet normal 0.0 0.0 -1.0
  outer loop
   vertex 0.017750907897949218 0.0 0.0
   vertex 0.14775091552734376 0.035 0.0
   vertex 0.17775091552734376 0.0 0.0
  endloop
 endfacet
 facet normal 0.0 -0.0 -1.0
  outer loop
   vertex 0.04775090789794922 0.035 0.0
   vertex 0.14775091552734376 0.035 0.0
   vertex 0.017750907897949218 0.0 0.0
  endloop
 endfacet
 facet normal 0.0 0.0 -1.0
  outer loop
   vertex 0.04775090789794922 0.065 0.0
   vertex 0.14775091552734376 0.065 0.0
   vertex 0.04775090789794922 0.035 0.0
  endloop
 endfacet
 facet normal 0.0 0.0 -1.0
  outer loop
   vertex 0.04775090789794922 0.035 0.0
   vertex 0.14775091552734376 0.065 0.0
   vertex 0.14775091552734376 0.035 0.0
  endloop
 endfacet
 facet normal 0.0 0.0 -1.0
  outer loop
   vertex 0.14775091552734376 0.035 0.0
   vertex 0.17775091552734376 0.035 0.0
   vertex 0.17775091552734376 0.0 0.0
  endloop
 endfacet
 facet normal 0.0 0.0 -1.0
  outer loop
   vertex 0.14775091552734376 0.065 0.0
   vertex 0.17775091552734376 0.1 0.0
   vertex 0.17775091552734376 0.065 0.0
  endloop
 endfacet
 facet normal 0.0 0.0 -1.0
  outer loop
   vertex 0.017750907897949218 0.1 0.0
   vertex 0.17775091552734376 0.1 0.0
   vertex 0.04775090789794922 0.065 0.0
  endloop
 endfacet
 facet normal 0.0 0.0 -1.0
  outer loop
   vertex 0.04775090789794922 0.065 0.0
   vertex 0.17775091552734376 0.1 0.0
   vertex 0.14775091552734376 0.065 0.0
  endloop
 endfacet
endsolid patch_2_0
solid patch_3_0
 facet normal 0.0 0.0 1.0
  outer loop
   vertex 0.04775090789794922 0.035 0.01
   vertex 0.017750907897949218 0.035 0.01
   vertex 0.017750907897949218 0.0 0.01
  endloop
 endfacet
 facet normal 0.0 0.0 1.0
  outer loop
   vertex 0.017750907897949218 0.1 0.01
   vertex 0.017750907897949218 0.065 0.01
   vertex 0.04775090789794922 0.065 0.01
  endloop
 endfacet
 facet normal 0.0 0.0 1.0
  outer loop
   vertex 0.14775091552734376 0.035 0.01
   vertex 0.017750907897949218 0.0 0.01
   vertex 0.17775091552734376 0.0 0.01
  endloop
 endfacet
 facet normal 0.0 0.0 1.0
  outer loop
   vertex 0.14775091552734376 0.035 0.01
   vertex 0.04775090789794922 0.035 0.01
   vertex 0.017750907897949218 0.0 0.01
  endloop
 endfacet
 facet normal 0.0 0.0 1.0
  outer loop
   vertex 0.14775091552734376 0.065 0.01
   vertex 0.04775090789794922 0.065 0.01
   vertex 0.04775090789794922 0.035 0.01
  endloop
 endfacet
 facet normal 0.0 0.0 1.0
  outer loop
   vertex 0.14775091552734376 0.065 0.01
   vertex 0.04775090789794922 0.035 0.01
   vertex 0.14775091552734376 0.035 0.01
  endloop
 endfacet
 facet normal 0.0 0.0 1.0
  outer loop
   vertex 0.17775091552734376 0.035 0.01
   vertex 0.14775091552734376 0.035 0.01
   vertex 0.17775091552734376 0.0 0.01
  endloop
 endfacet
 facet normal 0.0 0.0 1.0
  outer loop
   vertex 0.17775091552734376 0.1 0.01
   vertex 0.14775091552734376 0.065 0.01
   vertex 0.17775091552734376 0.065 0.01
  endloop
 endfacet
 facet normal 0.0 0.0 1.0
  outer loop
   vertex 0.17775091552734376 0.1 0.01
   vertex 0.017750907897949218 0.1 0.01
   vertex 0.04775090789794922 0.065 0.01
  endloop
 endfacet
 facet normal 0.0 0.0 1.0
  outer loop
   vertex 0.17775091552734376 0.1 0.01
   vertex 0.04775090789794922 0.065 0.01
   vertex 0.14775091552734376 0.065 0.01
  endloop
 endfacet
endsolid patch_3_0
solid patch_4_0
 facet normal 0.0 -1.0 0.0
  outer loop
   vertex 0.14775091552734376 0.065 0.0
   vertex 0.17775091552734376 0.065 0.0
   vertex 0.14775091552734376 0.065 0.01
  endloop
 endfacet
 facet normal 0.0 -1.0 0.0
  outer loop
   vertex 0.14775091552734376 0.065 0.01
   vertex 0.17775091552734376 0.065 0.0
   vertex 0.17775091552734376 0.065 0.01
  endloop
 endfacet
 facet normal 1.0 0.0 0.0
  outer loop
   vertex 0.14775091552734376 0.035 0.0
   vertex 0.14775091552734376 0.065 0.0
   vertex 0.14775091552734376 0.035 0.01
  endloop
 endfacet
 facet normal 1.0 -0.0 0.0
  outer loop
   vertex 0.14775091552734376 0.035 0.01
   vertex 0.14775091552734376 0.065 0.0
   vertex 0.14775091552734376 0.065 0.01
  endloop
 endfacet
 facet normal 0.0 1.0 -0.0
  outer loop
   vertex 0.17775091552734376 0.035 0.0
   vertex 0.14775091552734376 0.035 0.0
   vertex 0.17775091552734376 0.035 0.01
  endloop
 endfacet
 facet normal 0.0 1.0 0.0
  outer loop
   vertex 0.17775091552734376 0.035 0.01
   vertex 0.14775091552734376 0.035 0.0
   vertex 0.14775091552734376 0.035 0.01
  endloop
 endfacet
endsolid patch_4_0
solid patch_5_0
 facet normal 0.0 1.0 -0.0
  outer loop
   vertex 0.04775090789794922 0.035 0.0
   vertex 0.017750907897949218 0.035 0.0
   vertex 0.04775090789794922 0.035 0.01
  endloop
 endfacet
 facet normal 0.0 1.0 0.0
  outer loop
   vertex 0.04775090789794922 0.035 0.01
   vertex 0.017750907897949218 0.035 0.0
   vertex 0.017750907897949218 0.035 0.01
  endloop
 endfacet
 facet normal -1.0 0.0 0.0
  outer loop
   vertex 0.04775090789794922 0.065 0.0
   vertex 0.04775090789794922 0.035 0.0
   vertex 0.04775090789794922 0.065 0.01
  endloop
 endfacet
 facet normal -1.0 -0.0 0.0
  outer loop
   vertex 0.04775090789794922 0.065 0.01
   vertex 0.04775090789794922 0.035 0.0
   vertex 0.04775090789794922 0.035 0.01
  endloop
 endfacet
 facet normal 0.0 -1.0 0.0
  outer loop
   vertex 0.017750907897949218 0.065 0.0
   vertex 0.04775090789794922 0.065 0.0
   vertex 0.017750907897949218 0.065 0.01
  endloop
 endfacet
 facet normal 0.0 -1.0 0.0
  outer loop
   vertex 0.017750907897949218 0.065 0.01
   vertex 0.04775090789794922 0.065 0.0
   vertex 0.04775090789794922 0.065 0.01
  endloop
 endfacet
endsolid patch_5_0
