solid patch_4_0
 facet normal 0.0 -1.0 0.0
  outer loop
   vertex 0.14775091552734376 0.065 0.0
   vertex 0.17775091552734376 0.065 0.0
   vertex 0.14775091552734376 0.065 0.01
  endloop
 endfacet
 facet normal 0.0 -1.0 0.0
  outer loop
   vertex 0.14775091552734376 0.065 0.01
   vertex 0.17775091552734376 0.065 0.0
   vertex 0.17775091552734376 0.065 0.01
  endloop
 endfacet
 facet normal 1.0 0.0 0.0
  outer loop
   vertex 0.14775091552734376 0.035 0.0
   vertex 0.14775091552734376 0.065 0.0
   vertex 0.14775091552734376 0.035 0.01
  endloop
 endfacet
 facet normal 1.0 -0.0 0.0
  outer loop
   vertex 0.14775091552734376 0.035 0.01
   vertex 0.14775091552734376 0.065 0.0
   vertex 0.14775091552734376 0.065 0.01
  endloop
 endfacet
 facet normal 0.0 1.0 -0.0
  outer loop
   vertex 0.17775091552734376 0.035 0.0
   vertex 0.14775091552734376 0.035 0.0
   vertex 0.17775091552734376 0.035 0.01
  endloop
 endfacet
 facet normal 0.0 1.0 0.0
  outer loop
   vertex 0.17775091552734376 0.035 0.01
   vertex 0.14775091552734376 0.035 0.0
   vertex 0.14775091552734376 0.035 0.01
  endloop
 endfacet
endsolid patch_4_0
