solid patch_0_0
 facet normal -0.0 -1.0 0.0
  outer loop
   vertex 0.07351190185546876 -0.186 0.04
   vertex -0.07351190185546876 -0.186 0.04
   vertex -0.07351190185546876 -0.186 0.0
  endloop
 endfacet
 facet normal 0.0 -1.0 -0.0
  outer loop
   vertex 0.07351190185546876 -0.186 0.04
   vertex -0.07351190185546876 -0.186 0.0
   vertex 0.07351190185546876 -0.186 0.0
  endloop
 endfacet
 facet normal 0.0 -1.0 0.0
  outer loop
   vertex -0.06 0.02 0.01
   vertex -0.06 0.02 0.04
   vertex -0.1 0.02 0.01
  endloop
 endfacet
 facet normal 0.0 -1.0 0.0
  outer loop
   vertex -0.1 0.02 0.01
   vertex -0.06 0.02 0.04
   vertex -0.1 0.02 0.04
  endloop
 endfacet
 facet normal -1.0 0.0 0.0
  outer loop
   vertex -0.06 -0.02 0.01
   vertex -0.06 -0.02 0.04
   vertex -0.06 0.02 0.01
  endloop
 endfacet
 facet normal -1.0 0.0 0.0
  outer loop
   vertex -0.06 0.02 0.01
   vertex -0.06 -0.02 0.04
   vertex -0.06 0.02 0.04
  endloop
 endfacet
 facet normal 0.0 0.0 1.0
  outer loop
   vertex -0.06 0.02 0.01
   vertex -0.1 0.02 0.01
   vertex -0.1 -0.02 0.01
  endloop
 endfacet
 facet normal 0.0 0.0 1.0
  outer loop
   vertex -0.06 0.02 0.01
   vertex -0.1 -0.02 0.01
   vertex -0.06 -0.02 0.01
  endloop
 endfacet
 facet normal 1.0 0.0 0.0
  outer loop
   vertex -0.1 -0.02 0.04
   vertex -0.1 -0.02 0.01
   vertex -0.1 0.02 0.01
  endloop
 endfacet
 facet normal 1.0 -0.0 0.0
  outer loop
   vertex -0.1 -0.02 0.04
   vertex -0.1 0.02 0.01
   vertex -0.1 0.02 0.04
  endloop
 endfacet
 facet normal 0.0 1.0 0.0
  outer loop
   vertex -0.06 -0.02 0.04
   vertex -0.06 -0.02 0.01
   vertex -0.1 -0.02 0.01
  endloop
 endfacet
 facet normal 0.0 1.0 0.0
  outer loop
   vertex -0.06 -0.02 0.04
   vertex -0.1 -0.02 0.01
   vertex -0.1 -0.02 0.04
  endloop
 endfacet
 facet normal -0.0 -1.0 0.0
  outer loop
   vertex 0.06244998168945313 0.19 0.04
   vertex -0.06244998168945313 0.19 0.04
   vertex -0.06244998168945313 0.19 0.0
  endloop
 endfacet
 facet normal 0.0 -1.0 -0.0
  outer loop
   vertex 0.06244998168945313 0.19 0.04
   vertex -0.06244998168945313 0.19 0.0
   vertex 0.06244998168945313 0.19 0.0
  endloop
 endfacet
endsolid patch_0_0
