solid patch_2_0
 facet normal 0.0 0.0 1.0
  outer loop
   vertex -0.1 -0.02 0.04
   vertex -0.19999961853027345 -0.00039371687173843384 0.04
   vertex -0.19958116149902344 -0.012936723709106446 0.04
  endloop
 endfacet
 facet normal 0.0 0.0 1.0
  outer loop
   vertex -0.1 -0.02 0.04
   vertex -0.19958116149902344 -0.012936723709106446 0.04
   vertex -0.19837686157226564 -0.02542879104614258 0.04
  endloop
 endfacet
 facet normal 0.0 0.0 1.0
  outer loop
   vertex -0.1 -0.02 0.04
   vertex -0.19837686157226564 -0.02542879104614258 0.04
   vertex -0.19639141845703126 -0.03782073211669922 0.04
  endloop
 endfacet
 facet normal 0.0 0.0 1.0
  outer loop
   vertex -0.1 -0.02 0.04
   vertex -0.19639141845703126 -0.03782073211669922 0.04
   vertex -0.1936326904296875 -0.050063751220703126 0.04
  endloop
 endfacet
 facet normal 0.0 0.0 1.0
  outer loop
   vertex -0.1 -0.02 0.04
   vertex -0.1936326904296875 -0.050063751220703126 0.04
   vertex -0.1901115264892578 -0.062109642028808594 0.04
  endloop
 endfacet
 facet normal 0.0 0.0 1.0
  outer loop
   vertex -0.1 -0.02 0.04
   vertex -0.1901115264892578 -0.062109642028808594 0.04
   vertex -0.18584178161621095 -0.07391097259521484 0.04
  endloop
 endfacet
 facet normal 0.0 0.0 1.0
  outer loop
   vertex -0.1 -0.02 0.04
   vertex -0.18584178161621095 -0.07391097259521484 0.04
   vertex -0.18084027099609376 -0.08542127227783203 0.04
  endloop
 endfacet
 facet normal 0.0 0.0 1.0
  outer loop
   vertex -0.1 -0.02 0.04
   vertex -0.18084027099609376 -0.08542127227783203 0.04
   vertex -0.175126708984375 -0.09659523010253906 0.04
  endloop
 endfacet
 facet normal 0.0 0.0 1.0
  outer loop
   vertex -0.1 -0.02 0.04
   vertex -0.175126708984375 -0.09659523010253906 0.04
   vertex -0.1687235565185547 -0.10738883209228516 0.04
  endloop
 endfacet
 facet normal 0.0 0.0 1.0
  outer loop
   vertex -0.1 -0.02 0.04
   vertex -0.1687235565185547 -0.10738883209228516 0.04
   vertex -0.1616560516357422 -0.11775958251953125 0.04
  endloop
 endfacet
 facet normal 0.0 0.0 1.0
  outer loop
   vertex -0.1 -0.02 0.04
   vertex -0.1616560516357422 -0.11775958251953125 0.04
   vertex -0.1539520263671875 -0.12766665649414063 0.04
  endloop
 endfacet
 facet normal 0.0 0.0 1.0
  outer loop
   vertex -0.1 -0.02 0.04
   vertex -0.1539520263671875 -0.12766665649414063 0.04
   vertex -0.14564179992675783 -0.13707102966308593 0.04
  endloop
 endfacet
 facet normal 0.0 0.0 1.0
  outer loop
   vertex -0.1 -0.02 0.04
   vertex -0.14564179992675783 -0.13707102966308593 0.04
   vertex -0.13675810241699218 -0.14593568420410158 0.04
  endloop
 endfacet
 facet normal 0.0 0.0 1.0
  outer loop
   vertex -0.1 -0.02 0.04
   vertex -0.13675810241699218 -0.14593568420410158 0.04
   vertex -0.12733590698242186 -0.15422569274902345 0.04
  endloop
 endfacet
 facet normal 0.0 0.0 1.0
  outer loop
   vertex -0.06 -0.02 0.04
   vertex -0.1 -0.02 0.04
   vertex -0.12733590698242186 -0.15422569274902345 0.04
  endloop
 endfacet
 facet normal 0.0 0.0 1.0
  outer loop
   vertex -0.06 -0.02 0.04
   vertex -0.12733590698242186 -0.15422569274902345 0.04
   vertex -0.11741232299804688 -0.161908447265625 0.04
  endloop
 endfacet
 facet normal 0.0 0.0 1.0
  outer loop
   vertex -0.06 -0.02 0.04
   vertex -0.11741232299804688 -0.161908447265625 0.04
   vertex -0.10702642822265625 -0.16895367431640626 0.04
  endloop
 endfacet
 facet normal 0.0 0.0 1.0
  outer loop
   vertex -0.06 -0.02 0.04
   vertex -0.10702642822265625 -0.16895367431640626 0.04
   vertex -0.09621910858154296 -0.17533363342285158 0.04
  endloop
 endfacet
 facet normal 0.0 0.0 1.0
  outer loop
   vertex -0.06 -0.02 0.04
   vertex -0.09621910858154296 -0.17533363342285158 0.04
   vertex -0.08503291320800782 -0.18102320861816407 0.04
  endloop
 endfacet
 facet normal 0.0 0.0 1.0
  outer loop
   vertex -0.06 -0.02 0.04
   vertex -0.08503291320800782 -0.18102320861816407 0.04
   vertex -0.07351190185546876 -0.186 0.04
  endloop
 endfacet
 facet normal 0.0 0.0 1.0
  outer loop
   vertex -0.06 -0.02 0.04
   vertex -0.07351190185546876 -0.186 0.04
   vertex 0.07351190185546876 -0.186 0.04
  endloop
 endfacet
 facet normal 0.0 0.0 1.0
  outer loop
   vertex -0.1 0.02 0.04
   vertex -0.18117518615722655 0.0847086181640625 0.04
   vertex -0.18613134765625 0.0731787109375 0.04
  endloop
 endfacet
 facet normal 0.0 0.0 1.0
  outer loop
   vertex -0.1 0.02 0.04
   vertex -0.18613134765625 0.0731787109375 0.04
   vertex -0.19035458374023437 0.061360660552978515 0.04
  endloop
 endfacet
 facet normal 0.0 0.0 1.0
  outer loop
   vertex -0.1 0.02 0.04
   vertex -0.19035458374023437 0.061360660552978515 0.04
   vertex -0.19382830810546875 0.049301002502441404 0.04
  endloop
 endfacet
 facet normal 0.0 0.0 1.0
  outer loop
   vertex -0.1 0.02 0.04
   vertex -0.19382830810546875 0.049301002502441404 0.04
   vertex -0.19653880310058594 0.03704721450805664 0.04
  endloop
 endfacet
 facet normal 0.0 0.0 1.0
  outer loop
   vertex -0.1 0.02 0.04
   vertex -0.19653880310058594 0.03704721450805664 0.04
   vertex -0.19847543334960938 0.024647552490234377 0.04
  endloop
 endfacet
 facet normal 0.0 0.0 1.0
  outer loop
   vertex -0.1 0.02 0.04
   vertex -0.19847543334960938 0.024647552490234377 0.04
   vertex -0.19963055419921874 0.012150840759277344 0.04
  endloop
 endfacet
 facet normal 0.0 0.0 1.0
  outer loop
   vertex -0.1 0.02 0.04
   vertex -0.19963055419921874 0.012150840759277344 0.04
   vertex -0.19999961853027345 -0.00039371687173843384 0.04
  endloop
 endfacet
 facet normal 0.0 0.0 1.0
  outer loop
   vertex -0.1 0.02 0.04
   vertex -0.19999961853027345 -0.00039371687173843384 0.04
   vertex -0.1 -0.02 0.04
  endloop
 endfacet
 facet normal 0.0 0.0 1.0
  outer loop
   vertex -0.1755056610107422 0.09590497589111328 0.04
   vertex -0.18117518615722655 0.0847086181640625 0.04
   vertex -0.1 0.02 0.04
  endloop
 endfacet
 facet normal 0.0 0.0 1.0
  outer loop
   vertex -0.16914505004882813 0.10672370910644531 0.04
   vertex -0.1755056610107422 0.09590497589111328 0.04
   vertex -0.1 0.02 0.04
  endloop
 endfacet
 facet normal 0.0 0.0 1.0
  outer loop
   vertex -0.16211843872070314 0.11712220764160157 0.04
   vertex -0.16914505004882813 0.10672370910644531 0.04
   vertex -0.1 0.02 0.04
  endloop
 endfacet
 facet normal 0.0 0.0 1.0
  outer loop
   vertex -0.15445347595214845 0.12705953216552734 0.04
   vertex -0.16211843872070314 0.11712220764160157 0.04
   vertex -0.1 0.02 0.04
  endloop
 endfacet
 facet normal 0.0 0.0 1.0
  outer loop
   vertex -0.1461803436279297 0.13649655151367188 0.04
   vertex -0.15445347595214845 0.12705953216552734 0.04
   vertex -0.1 0.02 0.04
  endloop
 endfacet
 facet normal 0.0 0.0 1.0
  outer loop
   vertex -0.13733161926269533 0.14539610290527344 0.04
   vertex -0.1461803436279297 0.13649655151367188 0.04
   vertex -0.1 0.02 0.04
  endloop
 endfacet
 facet normal 0.0 0.0 1.0
  outer loop
   vertex -0.12794213104248048 0.15372315979003906 0.04
   vertex -0.13733161926269533 0.14539610290527344 0.04
   vertex -0.1 0.02 0.04
  endloop
 endfacet
 facet normal 0.0 0.0 1.0
  outer loop
   vertex -0.12794213104248048 0.15372315979003906 0.04
   vertex -0.1 0.02 0.04
   vertex -0.06 0.02 0.04
  endloop
 endfacet
 facet normal 0.0 0.0 1.0
  outer loop
   vertex 0.06 -0.02 0.04
   vertex 0.07351190185546876 -0.186 0.04
   vertex 0.08505167388916016 -0.18101440429687501 0.04
  endloop
 endfacet
 facet normal 0.0 0.0 1.0
  outer loop
   vertex 0.06 -0.02 0.04
   vertex 0.08505167388916016 -0.18101440429687501 0.04
   vertex 0.09625543212890625 -0.17531369018554688 0.04
  endloop
 endfacet
 facet normal 0.0 0.0 1.0
  outer loop
   vertex 0.06 -0.02 0.04
   vertex 0.09625543212890625 -0.17531369018554688 0.04
   vertex 0.10707894134521484 -0.16892039489746094 0.04
  endloop
 endfacet
 facet normal 0.0 0.0 1.0
  outer loop
   vertex 0.06 -0.02 0.04
   vertex 0.10707894134521484 -0.16892039489746094 0.04
   vertex 0.11747941589355469 -0.16185977172851562 0.04
  endloop
 endfacet
 facet normal 0.0 0.0 1.0
  outer loop
   vertex 0.06 -0.02 0.04
   vertex 0.11747941589355469 -0.16185977172851562 0.04
   vertex 0.12741578674316406 -0.1541597137451172 0.04
  endloop
 endfacet
 facet normal 0.0 0.0 1.0
  outer loop
   vertex 0.06 -0.02 0.04
   vertex -0.06 -0.02 0.04
   vertex 0.07351190185546876 -0.186 0.04
  endloop
 endfacet
 facet normal 0.0 0.0 1.0
  outer loop
   vertex -0.11804887390136719 0.16144491577148437 0.04
   vertex -0.12794213104248048 0.15372315979003906 0.04
   vertex -0.06 0.02 0.04
  endloop
 endfacet
 facet normal 0.0 0.0 1.0
  outer loop
   vertex -0.1076907958984375 0.16853099060058593 0.04
   vertex -0.11804887390136719 0.16144491577148437 0.04
   vertex -0.06 0.02 0.04
  endloop
 endfacet
 facet normal 0.0 0.0 1.0
  outer loop
   vertex -0.09690867614746095 0.1749534454345703 0.04
   vertex -0.1076907958984375 0.16853099060058593 0.04
   vertex -0.06 0.02 0.04
  endloop
 endfacet
 facet normal 0.0 0.0 1.0
  outer loop
   vertex 0.1 -0.02 0.04
   vertex 0.12741578674316406 -0.1541597137451172 0.04
   vertex 0.1368488006591797 -0.1458506317138672 0.04
  endloop
 endfacet
 facet normal 0.0 0.0 1.0
  outer loop
   vertex 0.1 -0.02 0.04
   vertex 0.1368488006591797 -0.1458506317138672 0.04
   vertex 0.14574118041992187 -0.13696536254882813 0.04
  endloop
 endfacet
 facet normal 0.0 0.0 1.0
  outer loop
   vertex 0.1 -0.02 0.04
   vertex 0.14574118041992187 -0.13696536254882813 0.04
   vertex 0.1540577850341797 -0.12753900146484376 0.04
  endloop
 endfacet
 facet normal 0.0 0.0 1.0
  outer loop
   vertex 0.1 -0.02 0.04
   vertex 0.1540577850341797 -0.12753900146484376 0.04
   vertex 0.1617657928466797 -0.1176087875366211 0.04
  endloop
 endfacet
 facet normal 0.0 0.0 1.0
  outer loop
   vertex 0.1 -0.02 0.04
   vertex 0.1617657928466797 -0.1176087875366211 0.04
   vertex 0.16883473205566407 -0.10721395874023437 0.04
  endloop
 endfacet
 facet normal 0.0 0.0 1.0
  outer loop
   vertex 0.1 -0.02 0.04
   vertex 0.16883473205566407 -0.10721395874023437 0.04
   vertex 0.17523667907714843 -0.09639556884765625 0.04
  endloop
 endfacet
 facet normal 0.0 0.0 1.0
  outer loop
   vertex 0.1 -0.02 0.04
   vertex 0.06 -0.02 0.04
   vertex 0.12741578674316406 -0.1541597137451172 0.04
  endloop
 endfacet
 facet normal 0.0 0.0 1.0
  outer loop
   vertex 0.06 0.02 0.04
   vertex -0.06 0.02 0.04
   vertex -0.06 -0.02 0.04
  endloop
 endfacet
 facet normal 0.0 0.0 1.0
  outer loop
   vertex 0.06 0.02 0.04
   vertex -0.06 -0.02 0.04
   vertex 0.06 -0.02 0.04
  endloop
 endfacet
 facet normal 0.0 0.0 1.0
  outer loop
   vertex -0.0857449722290039 0.18068702697753908 0.04
   vertex -0.09690867614746095 0.1749534454345703 0.04
   vertex -0.06 0.02 0.04
  endloop
 endfacet
 facet normal 0.0 0.0 1.0
  outer loop
   vertex 0.18094633483886718 -0.08519636535644531 0.04
   vertex 0.1 -0.02 0.04
   vertex 0.17523667907714843 -0.09639556884765625 0.04
  endloop
 endfacet
 facet normal 0.0 0.0 1.0
  outer loop
   vertex -0.07424364471435548 0.18570913696289063 0.04
   vertex -0.0857449722290039 0.18068702697753908 0.04
   vertex -0.06 0.02 0.04
  endloop
 endfacet
 facet normal 0.0 0.0 1.0
  outer loop
   vertex 0.185941162109375 -0.07366059112548828 0.04
   vertex 0.1 -0.02 0.04
   vertex 0.18094633483886718 -0.08519636535644531 0.04
  endloop
 endfacet
 facet normal 0.0 0.0 1.0
  outer loop
   vertex -0.06244998168945313 0.19 0.04
   vertex -0.07424364471435548 0.18570913696289063 0.04
   vertex -0.06 0.02 0.04
  endloop
 endfacet
 facet normal 0.0 0.0 1.0
  outer loop
   vertex 0.190201416015625 -0.06183381271362305 0.04
   vertex 0.1 -0.02 0.04
   vertex 0.185941162109375 -0.07366059112548828 0.04
  endloop
 endfacet
 facet normal 0.0 0.0 1.0
  outer loop
   vertex 0.19371026611328127 -0.04976275634765625 0.04
   vertex 0.1 -0.02 0.04
   vertex 0.190201416015625 -0.06183381271362305 0.04
  endloop
 endfacet
 facet normal 0.0 0.0 1.0
  outer loop
   vertex 0.19645385742187502 -0.03749510955810547 0.04
   vertex 0.1 -0.02 0.04
   vertex 0.19371026611328127 -0.04976275634765625 0.04
  endloop
 endfacet
 facet normal 0.0 0.0 1.0
  outer loop
   vertex 0.1984213409423828 -0.02507933807373047 0.04
   vertex 0.1 -0.02 0.04
   vertex 0.19645385742187502 -0.03749510955810547 0.04
  endloop
 endfacet
 facet normal 0.0 0.0 1.0
  outer loop
   vertex 0.19960494995117187 -0.01256448745727539 0.04
   vertex 0.1 -0.02 0.04
   vertex 0.1984213409423828 -0.02507933807373047 0.04
  endloop
 endfacet
 facet normal 0.0 0.0 1.0
  outer loop
   vertex 0.2 -4.899999880131866e-17 0.04
   vertex 0.1 -0.02 0.04
   vertex 0.19960494995117187 -0.01256448745727539 0.04
  endloop
 endfacet
 facet normal 0.0 0.0 1.0
  outer loop
   vertex 0.2 -4.899999880131866e-17 0.04
   vertex 0.1 0.02 0.04
   vertex 0.1 -0.02 0.04
  endloop
 endfacet
 facet normal 0.0 0.0 1.0
  outer loop
   vertex 0.19960748291015626 0.012524159431457519 0.04
   vertex 0.1 0.02 0.04
   vertex 0.2 -4.899999880131866e-17 0.04
  endloop
 endfacet
 facet normal 0.0 0.0 1.0
  outer loop
   vertex 0.19843145751953126 0.02499915885925293 0.04
   vertex 0.1 0.02 0.04
   vertex 0.19960748291015626 0.012524159431457519 0.04
  endloop
 endfacet
 facet normal 0.0 0.0 1.0
  outer loop
   vertex 0.19647654724121094 0.03737602996826172 0.04
   vertex 0.1 0.02 0.04
   vertex 0.19843145751953126 0.02499915885925293 0.04
  endloop
 endfacet
 facet normal 0.0 0.0 1.0
  outer loop
   vertex 0.19375042724609376 0.04960619354248047 0.04
   vertex 0.1 0.02 0.04
   vertex 0.19647654724121094 0.03737602996826172 0.04
  endloop
 endfacet
 facet normal 0.0 0.0 1.0
  outer loop
   vertex 0.19026377868652344 0.06164163970947266 0.04
   vertex 0.1 0.02 0.04
   vertex 0.19375042724609376 0.04960619354248047 0.04
  endloop
 endfacet
 facet normal 0.0 0.0 1.0
  outer loop
   vertex 0.06244998168945313 0.19 0.04
   vertex -0.06244998168945313 0.19 0.04
   vertex -0.06 0.02 0.04
  endloop
 endfacet
 facet normal 0.0 0.0 1.0
  outer loop
   vertex 0.06244998168945313 0.19 0.04
   vertex -0.06 0.02 0.04
   vertex 0.06 0.02 0.04
  endloop
 endfacet
 facet normal 0.0 0.0 1.0
  outer loop
   vertex 0.1860303192138672 0.07343513488769532 0.04
   vertex 0.1 0.02 0.04
   vertex 0.19026377868652344 0.06164163970947266 0.04
  endloop
 endfacet
 facet normal 0.0 0.0 1.0
  outer loop
   vertex 0.0742253646850586 0.18571643066406252 0.04
   vertex 0.06244998168945313 0.19 0.04
   vertex 0.06 0.02 0.04
  endloop
 endfacet
 facet normal 0.0 0.0 1.0
  outer loop
   vertex 0.181066650390625 0.08494037628173828 0.04
   vertex 0.1 0.02 0.04
   vertex 0.1860303192138672 0.07343513488769532 0.04
  endloop
 endfacet
 facet normal 0.0 0.0 1.0
  outer loop
   vertex 0.08570940399169923 0.1807039031982422 0.04
   vertex 0.0742253646850586 0.18571643066406252 0.04
   vertex 0.06 0.02 0.04
  endloop
 endfacet
 facet normal 0.0 0.0 1.0
  outer loop
   vertex 0.17539225769042968 0.0961122055053711 0.04
   vertex 0.1 0.02 0.04
   vertex 0.181066650390625 0.08494037628173828 0.04
  endloop
 endfacet
 facet normal 0.0 0.0 1.0
  outer loop
   vertex 0.09685700988769531 0.1749820556640625 0.04
   vertex 0.08570940399169923 0.1807039031982422 0.04
   vertex 0.06 0.02 0.04
  endloop
 endfacet
 facet normal 0.0 0.0 1.0
  outer loop
   vertex 0.16902940368652344 0.1069067840576172 0.04
   vertex 0.1 0.02 0.04
   vertex 0.17539225769042968 0.0961122055053711 0.04
  endloop
 endfacet
 facet normal 0.0 0.0 1.0
  outer loop
   vertex 0.1076244354248047 0.1685733642578125 0.04
   vertex 0.09685700988769531 0.1749820556640625 0.04
   vertex 0.06 0.02 0.04
  endloop
 endfacet
 facet normal 0.0 0.0 1.0
  outer loop
   vertex 0.16200308227539062 0.11728172302246094 0.04
   vertex 0.1 0.02 0.04
   vertex 0.16902940368652344 0.1069067840576172 0.04
  endloop
 endfacet
 facet normal 0.0 0.0 1.0
  outer loop
   vertex 0.1179694061279297 0.16150300598144532 0.04
   vertex 0.1076244354248047 0.1685733642578125 0.04
   vertex 0.06 0.02 0.04
  endloop
 endfacet
 facet normal 0.0 0.0 1.0
  outer loop
   vertex 0.15434085083007812 0.12719630432128906 0.04
   vertex 0.1 0.02 0.04
   vertex 0.16200308227539062 0.11728172302246094 0.04
  endloop
 endfacet
 facet normal 0.0 0.0 1.0
  outer loop
   vertex 0.12785132598876953 0.15379869079589845 0.04
   vertex 0.1179694061279297 0.16150300598144532 0.04
   vertex 0.06 0.02 0.04
  endloop
 endfacet
 facet normal 0.0 0.0 1.0
  outer loop
   vertex 0.12785132598876953 0.15379869079589845 0.04
   vertex 0.06 0.02 0.04
   vertex 0.1 0.02 0.04
  endloop
 endfacet
 facet normal 0.0 0.0 1.0
  outer loop
   vertex 0.14607281494140625 0.13661161804199218 0.04
   vertex 0.1 0.02 0.04
   vertex 0.15434085083007812 0.12719630432128906 0.04
  endloop
 endfacet
 facet normal 0.0 0.0 1.0
  outer loop
   vertex 0.1372313995361328 0.14549069213867188 0.04
   vertex 0.12785132598876953 0.15379869079589845 0.04
   vertex 0.1 0.02 0.04
  endloop
 endfacet
 facet normal 0.0 0.0 1.0
  outer loop
   vertex 0.1372313995361328 0.14549069213867188 0.04
   vertex 0.1 0.02 0.04
   vertex 0.14607281494140625 0.13661161804199218 0.04
  endloop
 endfacet
 facet normal -0.3419019877910614 0.9397356510162354 0.0
  outer loop
   vertex -0.06244998168945313 0.19 0.0
   vertex -0.07424364471435548 0.18570913696289063 0.0
   vertex -0.06244998168945313 0.19 0.04
  endloop
 endfacet
 facet normal -0.3419019877910614 0.9397356510162354 0.0
  outer loop
   vertex -0.06244998168945313 0.19 0.04
   vertex -0.07424364471435548 0.18570913696289063 0.0
   vertex -0.07424364471435548 0.18570913696289063 0.04
  endloop
 endfacet
 facet normal -0.40016859769821167 0.9164415001869202 0.0
  outer loop
   vertex -0.07424364471435548 0.18570913696289063 0.04
   vertex -0.0857449722290039 0.18068702697753908 0.0
   vertex -0.0857449722290039 0.18068702697753908 0.04
  endloop
 endfacet
 facet normal -0.40016859769821167 0.9164415001869202 0.0
  outer loop
   vertex -0.07424364471435548 0.18570913696289063 0.0
   vertex -0.0857449722290039 0.18068702697753908 0.0
   vertex -0.07424364471435548 0.18570913696289063 0.04
  endloop
 endfacet
 facet normal -0.4568594694137573 0.8895389437675476 0.0
  outer loop
   vertex -0.0857449722290039 0.18068702697753908 0.04
   vertex -0.09690867614746095 0.1749534454345703 0.0
   vertex -0.09690867614746095 0.1749534454345703 0.04
  endloop
 endfacet
 facet normal -0.4568594694137573 0.8895389437675476 0.0
  outer loop
   vertex -0.0857449722290039 0.18068702697753908 0.0
   vertex -0.09690867614746095 0.1749534454345703 0.0
   vertex -0.0857449722290039 0.18068702697753908 0.04
  endloop
 endfacet
 facet normal -0.5117501616477966 0.859134316444397 0.0
  outer loop
   vertex -0.09690867614746095 0.1749534454345703 0.04
   vertex -0.1076907958984375 0.16853099060058593 0.0
   vertex -0.1076907958984375 0.16853099060058593 0.04
  endloop
 endfacet
 facet normal -0.5117501616477966 0.859134316444397 0.0
  outer loop
   vertex -0.09690867614746095 0.1749534454345703 0.0
   vertex -0.1076907958984375 0.16853099060058593 0.0
   vertex -0.09690867614746095 0.1749534454345703 0.04
  endloop
 endfacet
 facet normal -0.5646279454231262 0.8253455758094788 0.0
  outer loop
   vertex -0.1076907958984375 0.16853099060058593 0.0
   vertex -0.11804887390136719 0.16144491577148437 0.0
   vertex -0.1076907958984375 0.16853099060058593 0.04
  endloop
 endfacet
 facet normal -0.5646279454231262 0.8253455758094788 0.0
  outer loop
   vertex -0.1076907958984375 0.16853099060058593 0.04
   vertex -0.11804887390136719 0.16144491577148437 0.0
   vertex -0.11804887390136719 0.16144491577148437 0.04
  endloop
 endfacet
 facet normal -0.6152802109718323 0.7883084416389465 0.0
  outer loop
   vertex -0.11804887390136719 0.16144491577148437 0.0
   vertex -0.12794213104248048 0.15372315979003906 0.0
   vertex -0.11804887390136719 0.16144491577148437 0.04
  endloop
 endfacet
 facet normal -0.6152802109718323 0.7883084416389465 0.0
  outer loop
   vertex -0.11804887390136719 0.16144491577148437 0.04
   vertex -0.12794213104248048 0.15372315979003906 0.0
   vertex -0.12794213104248048 0.15372315979003906 0.04
  endloop
 endfacet
 facet normal -0.663510799407959 0.7481667399406433 0.0
  outer loop
   vertex -0.12794213104248048 0.15372315979003906 0.0
   vertex -0.13733161926269533 0.14539610290527344 0.0
   vertex -0.12794213104248048 0.15372315979003906 0.04
  endloop
 endfacet
 facet normal -0.663510799407959 0.7481667399406433 0.0
  outer loop
   vertex -0.12794213104248048 0.15372315979003906 0.04
   vertex -0.13733161926269533 0.14539610290527344 0.0
   vertex -0.13733161926269533 0.14539610290527344 0.04
  endloop
 endfacet
 facet normal -0.7091289162635803 0.7050788998603821 0.0
  outer loop
   vertex -0.13733161926269533 0.14539610290527344 0.04
   vertex -0.13733161926269533 0.14539610290527344 0.0
   vertex -0.1461803436279297 0.13649655151367188 0.04
  endloop
 endfacet
 facet normal -0.7091289162635803 0.7050788998603821 0.0
  outer loop
   vertex -0.13733161926269533 0.14539610290527344 0.0
   vertex -0.1461803436279297 0.13649655151367188 0.0
   vertex -0.1461803436279297 0.13649655151367188 0.04
  endloop
 endfacet
 facet normal -0.7519547939300537 0.6592146754264832 0.0
  outer loop
   vertex -0.1461803436279297 0.13649655151367188 0.0
   vertex -0.15445347595214845 0.12705953216552734 0.0
   vertex -0.1461803436279297 0.13649655151367188 0.04
  endloop
 endfacet
 facet normal -0.7519547939300537 0.6592146754264832 0.0
  outer loop
   vertex -0.1461803436279297 0.13649655151367188 0.04
   vertex -0.15445347595214845 0.12705953216552734 0.0
   vertex -0.15445347595214845 0.12705953216552734 0.04
  endloop
 endfacet
 facet normal -0.7918197512626648 0.6107548475265503 0.0
  outer loop
   vertex -0.15445347595214845 0.12705953216552734 0.0
   vertex -0.16211843872070314 0.11712220764160157 0.0
   vertex -0.15445347595214845 0.12705953216552734 0.04
  endloop
 endfacet
 facet normal -0.7918197512626648 0.6107548475265503 0.0
  outer loop
   vertex -0.15445347595214845 0.12705953216552734 0.04
   vertex -0.16211843872070314 0.11712220764160157 0.0
   vertex -0.16211843872070314 0.11712220764160157 0.04
  endloop
 endfacet
 facet normal -0.82856684923172 0.5598901510238647 0.0
  outer loop
   vertex -0.16211843872070314 0.11712220764160157 0.0
   vertex -0.16914505004882813 0.10672370910644531 0.0
   vertex -0.16211843872070314 0.11712220764160157 0.04
  endloop
 endfacet
 facet normal -0.82856684923172 0.5598901510238647 0.0
  outer loop
   vertex -0.16211843872070314 0.11712220764160157 0.04
   vertex -0.16914505004882813 0.10672370910644531 0.0
   vertex -0.16914505004882813 0.10672370910644531 0.04
  endloop
 endfacet
 facet normal -0.8620508313179016 0.5068218111991882 0.0
  outer loop
   vertex -0.16914505004882813 0.10672370910644531 0.04
   vertex -0.16914505004882813 0.10672370910644531 0.0
   vertex -0.1755056610107422 0.09590497589111328 0.04
  endloop
 endfacet
 facet normal -0.8620508313179016 0.5068218111991882 0.0
  outer loop
   vertex -0.16914505004882813 0.10672370910644531 0.0
   vertex -0.1755056610107422 0.09590497589111328 0.0
   vertex -0.1755056610107422 0.09590497589111328 0.04
  endloop
 endfacet
 facet normal -0.8921416401863098 0.4517557919025421 0.0
  outer loop
   vertex -0.1755056610107422 0.09590497589111328 0.0
   vertex -0.18117518615722655 0.0847086181640625 0.0
   vertex -0.1755056610107422 0.09590497589111328 0.04
  endloop
 endfacet
 facet normal -0.8921416401863098 0.4517557919025421 0.0
  outer loop
   vertex -0.1755056610107422 0.09590497589111328 0.04
   vertex -0.18117518615722655 0.0847086181640625 0.0
   vertex -0.18117518615722655 0.0847086181640625 0.04
  endloop
 endfacet
 facet normal -0.9187183380126953 0.39491352438926697 0.0
  outer loop
   vertex -0.18117518615722655 0.0847086181640625 0.04
   vertex -0.18117518615722655 0.0847086181640625 0.0
   vertex -0.18613134765625 0.0731787109375 0.04
  endloop
 endfacet
 facet normal -0.9187183380126953 0.39491352438926697 0.0
  outer loop
   vertex -0.18117518615722655 0.0847086181640625 0.0
   vertex -0.18613134765625 0.0731787109375 0.0
   vertex -0.18613134765625 0.0731787109375 0.04
  endloop
 endfacet
 facet normal -0.9416787028312683 0.33651334047317505 0.0
  outer loop
   vertex -0.18613134765625 0.0731787109375 0.0
   vertex -0.19035458374023437 0.061360660552978515 0.0
   vertex -0.18613134765625 0.0731787109375 0.04
  endloop
 endfacet
 facet normal -0.9416787028312683 0.33651334047317505 0.0
  outer loop
   vertex -0.18613134765625 0.0731787109375 0.04
   vertex -0.19035458374023437 0.061360660552978515 0.0
   vertex -0.19035458374023437 0.061360660552978515 0.04
  endloop
 endfacet
 facet normal -0.9609301090240479 0.27679112553596497 0.0
  outer loop
   vertex -0.19035458374023437 0.061360660552978515 0.0
   vertex -0.19382830810546875 0.049301002502441404 0.0
   vertex -0.19035458374023437 0.061360660552978515 0.04
  endloop
 endfacet
 facet normal -0.9609301090240479 0.27679112553596497 0.0
  outer loop
   vertex -0.19035458374023437 0.061360660552978515 0.04
   vertex -0.19382830810546875 0.049301002502441404 0.0
   vertex -0.19382830810546875 0.049301002502441404 0.04
  endloop
 endfacet
 facet normal -0.9763986468315125 0.21597595512866974 0.0
  outer loop
   vertex -0.19382830810546875 0.049301002502441404 0.04
   vertex -0.19382830810546875 0.049301002502441404 0.0
   vertex -0.19653880310058594 0.03704721450805664 0.04
  endloop
 endfacet
 facet normal -0.9763986468315125 0.21597595512866974 0.0
  outer loop
   vertex -0.19382830810546875 0.049301002502441404 0.0
   vertex -0.19653880310058594 0.03704721450805664 0.0
   vertex -0.19653880310058594 0.03704721450805664 0.04
  endloop
 endfacet
 facet normal -0.988021969795227 0.1543133407831192 0.0
  outer loop
   vertex -0.19653880310058594 0.03704721450805664 0.0
   vertex -0.19847543334960938 0.024647552490234377 0.0
   vertex -0.19653880310058594 0.03704721450805664 0.04
  endloop
 endfacet
 facet normal -0.988021969795227 0.1543133407831192 0.0
  outer loop
   vertex -0.19653880310058594 0.03704721450805664 0.04
   vertex -0.19847543334960938 0.024647552490234377 0.0
   vertex -0.19847543334960938 0.024647552490234377 0.04
  endloop
 endfacet
 facet normal -0.995755136013031 0.09204161167144775 0.0
  outer loop
   vertex -0.19847543334960938 0.024647552490234377 0.04
   vertex -0.19963055419921874 0.012150840759277344 0.0
   vertex -0.19963055419921874 0.012150840759277344 0.04
  endloop
 endfacet
 facet normal -0.995755136013031 0.09204161167144775 0.0
  outer loop
   vertex -0.19847543334960938 0.024647552490234377 0.0
   vertex -0.19963055419921874 0.012150840759277344 0.0
   vertex -0.19847543334960938 0.024647552490234377 0.04
  endloop
 endfacet
 facet normal -0.999567449092865 0.029407549649477005 0.0
  outer loop
   vertex -0.19963055419921874 0.012150840759277344 0.04
   vertex -0.19999961853027345 -0.00039371687173843384 0.0
   vertex -0.19999961853027345 -0.00039371687173843384 0.04
  endloop
 endfacet
 facet normal -0.999567449092865 0.029407549649477005 0.0
  outer loop
   vertex -0.19963055419921874 0.012150840759277344 0.0
   vertex -0.19999961853027345 -0.00039371687173843384 0.0
   vertex -0.19963055419921874 0.012150840759277344 0.04
  endloop
 endfacet
 facet normal -0.9994439482688904 -0.033343229442834854 0.0
  outer loop
   vertex -0.19999961853027345 -0.00039371687173843384 0.04
   vertex -0.19958116149902344 -0.012936723709106446 0.0
   vertex -0.19958116149902344 -0.012936723709106446 0.04
  endloop
 endfacet
 facet normal -0.9994439482688904 -0.033343229442834854 0.0
  outer loop
   vertex -0.19999961853027345 -0.00039371687173843384 0.0
   vertex -0.19958116149902344 -0.012936723709106446 0.0
   vertex -0.19999961853027345 -0.00039371687173843384 0.04
  endloop
 endfacet
 facet normal -0.9953851699829102 -0.09596028178930283 0.0
  outer loop
   vertex -0.19958116149902344 -0.012936723709106446 0.04
   vertex -0.19837686157226564 -0.02542879104614258 0.0
   vertex -0.19837686157226564 -0.02542879104614258 0.04
  endloop
 endfacet
 facet normal -0.9953851699829102 -0.09596028178930283 0.0
  outer loop
   vertex -0.19958116149902344 -0.012936723709106446 0.0
   vertex -0.19837686157226564 -0.02542879104614258 0.0
   vertex -0.19958116149902344 -0.012936723709106446 0.04
  endloop
 endfacet
 facet normal -0.9874066114425659 -0.15820279717445374 0.0
  outer loop
   vertex -0.19837686157226564 -0.02542879104614258 0.04
   vertex -0.19639141845703126 -0.03782073211669922 0.0
   vertex -0.19639141845703126 -0.03782073211669922 0.04
  endloop
 endfacet
 facet normal -0.9874066114425659 -0.15820279717445374 0.0
  outer loop
   vertex -0.19837686157226564 -0.02542879104614258 0.0
   vertex -0.19639141845703126 -0.03782073211669922 0.0
   vertex -0.19837686157226564 -0.02542879104614258 0.04
  endloop
 endfacet
 facet normal -0.9755406379699707 -0.21981924772262573 0.0
  outer loop
   vertex -0.19639141845703126 -0.03782073211669922 0.04
   vertex -0.1936326904296875 -0.050063751220703126 0.0
   vertex -0.1936326904296875 -0.050063751220703126 0.04
  endloop
 endfacet
 facet normal -0.9755406379699707 -0.21981924772262573 0.0
  outer loop
   vertex -0.19639141845703126 -0.03782073211669922 0.0
   vertex -0.1936326904296875 -0.050063751220703126 0.0
   vertex -0.19639141845703126 -0.03782073211669922 0.04
  endloop
 endfacet
 facet normal -0.9598332047462463 -0.28057119250297546 0.0
  outer loop
   vertex -0.1936326904296875 -0.050063751220703126 0.04
   vertex -0.1901115264892578 -0.062109642028808594 0.0
   vertex -0.1901115264892578 -0.062109642028808594 0.04
  endloop
 endfacet
 facet normal -0.9598332047462463 -0.28057119250297546 0.0
  outer loop
   vertex -0.1936326904296875 -0.050063751220703126 0.0
   vertex -0.1901115264892578 -0.062109642028808594 0.0
   vertex -0.1936326904296875 -0.050063751220703126 0.04
  endloop
 endfacet
 facet normal -0.9403461217880249 -0.340219110250473 0.0
  outer loop
   vertex -0.1901115264892578 -0.062109642028808594 0.04
   vertex -0.18584178161621095 -0.07391097259521484 0.0
   vertex -0.18584178161621095 -0.07391097259521484 0.04
  endloop
 endfacet
 facet normal -0.9403461217880249 -0.340219110250473 0.0
  outer loop
   vertex -0.1901115264892578 -0.062109642028808594 0.0
   vertex -0.18584178161621095 -0.07391097259521484 0.0
   vertex -0.1901115264892578 -0.062109642028808594 0.04
  endloop
 endfacet
 facet normal -0.917156457901001 -0.39852723479270935 0.0
  outer loop
   vertex -0.18584178161621095 -0.07391097259521484 0.04
   vertex -0.18084027099609376 -0.08542127227783203 0.0
   vertex -0.18084027099609376 -0.08542127227783203 0.04
  endloop
 endfacet
 facet normal -0.8903562426567078 -0.4552644193172455 -0.0
  outer loop
   vertex -0.18084027099609376 -0.08542127227783203 0.04
   vertex -0.18084027099609376 -0.08542127227783203 0.0
   vertex -0.175126708984375 -0.09659523010253906 0.04
  endloop
 endfacet
 facet normal -0.917156457901001 -0.39852723479270935 0.0
  outer loop
   vertex -0.18584178161621095 -0.07391097259521484 0.0
   vertex -0.18084027099609376 -0.08542127227783203 0.0
   vertex -0.18584178161621095 -0.07391097259521484 0.04
  endloop
 endfacet
 facet normal -0.8903562426567078 -0.4552644193172455 0.0
  outer loop
   vertex -0.18084027099609376 -0.08542127227783203 0.0
   vertex -0.175126708984375 -0.09659523010253906 0.0
   vertex -0.175126708984375 -0.09659523010253906 0.04
  endloop
 endfacet
 facet normal -0.860048770904541 -0.5102118253707886 0.0
  outer loop
   vertex -0.175126708984375 -0.09659523010253906 0.04
   vertex -0.1687235565185547 -0.10738883209228516 0.0
   vertex -0.1687235565185547 -0.10738883209228516 0.04
  endloop
 endfacet
 facet normal -0.860048770904541 -0.5102118253707886 0.0
  outer loop
   vertex -0.175126708984375 -0.09659523010253906 0.0
   vertex -0.1687235565185547 -0.10738883209228516 0.0
   vertex -0.175126708984375 -0.09659523010253906 0.04
  endloop
 endfacet
 facet normal -0.8263556957244873 -0.5631484985351562 0.0
  outer loop
   vertex -0.1687235565185547 -0.10738883209228516 0.0
   vertex -0.1616560516357422 -0.11775958251953125 0.0
   vertex -0.1687235565185547 -0.10738883209228516 0.04
  endloop
 endfacet
 facet normal -0.8263556957244873 -0.5631484985351562 0.0
  outer loop
   vertex -0.1687235565185547 -0.10738883209228516 0.04
   vertex -0.1616560516357422 -0.11775958251953125 0.0
   vertex -0.1616560516357422 -0.11775958251953125 0.04
  endloop
 endfacet
 facet normal -0.7894092202186584 -0.6138672828674316 0.0
  outer loop
   vertex -0.1616560516357422 -0.11775958251953125 0.0
   vertex -0.1539520263671875 -0.12766665649414063 0.0
   vertex -0.1616560516357422 -0.11775958251953125 0.04
  endloop
 endfacet
 facet normal -0.7894092202186584 -0.6138672828674316 0.0
  outer loop
   vertex -0.1616560516357422 -0.11775958251953125 0.04
   vertex -0.1539520263671875 -0.12766665649414063 0.0
   vertex -0.1539520263671875 -0.12766665649414063 0.04
  endloop
 endfacet
 facet normal -0.7493534088134766 -0.6621702909469604 -0.0
  outer loop
   vertex -0.1539520263671875 -0.12766665649414063 0.04
   vertex -0.1539520263671875 -0.12766665649414063 0.0
   vertex -0.14564179992675783 -0.13707102966308593 0.04
  endloop
 endfacet
 facet normal -0.7493534088134766 -0.6621702909469604 0.0
  outer loop
   vertex -0.1539520263671875 -0.12766665649414063 0.0
   vertex -0.14564179992675783 -0.13707102966308593 0.0
   vertex -0.14564179992675783 -0.13707102966308593 0.04
  endloop
 endfacet
 facet normal -0.706347644329071 -0.7078650593757629 0.0
  outer loop
   vertex -0.14564179992675783 -0.13707102966308593 0.0
   vertex -0.13675810241699218 -0.14593568420410158 0.0
   vertex -0.14564179992675783 -0.13707102966308593 0.04
  endloop
 endfacet
 facet normal -0.706347644329071 -0.7078650593757629 0.0
  outer loop
   vertex -0.14564179992675783 -0.13707102966308593 0.04
   vertex -0.13675810241699218 -0.14593568420410158 0.0
   vertex -0.13675810241699218 -0.14593568420410158 0.04
  endloop
 endfacet
 facet normal -0.6605594754219055 -0.7507736682891846 0.0
  outer loop
   vertex -0.13675810241699218 -0.14593568420410158 0.0
   vertex -0.12733590698242186 -0.15422569274902345 0.0
   vertex -0.13675810241699218 -0.14593568420410158 0.04
  endloop
 endfacet
 facet normal -0.6605594754219055 -0.7507736682891846 0.0
  outer loop
   vertex -0.13675810241699218 -0.14593568420410158 0.04
   vertex -0.12733590698242186 -0.15422569274902345 0.0
   vertex -0.12733590698242186 -0.15422569274902345 0.04
  endloop
 endfacet
 facet normal -0.6121721863746643 -0.790724515914917 0.0
  outer loop
   vertex -0.12733590698242186 -0.15422569274902345 0.0
   vertex -0.11741232299804688 -0.161908447265625 0.0
   vertex -0.12733590698242186 -0.15422569274902345 0.04
  endloop
 endfacet
 facet normal -0.6121721863746643 -0.790724515914917 0.0
  outer loop
   vertex -0.12733590698242186 -0.15422569274902345 0.04
   vertex -0.11741232299804688 -0.161908447265625 0.0
   vertex -0.11741232299804688 -0.161908447265625 0.04
  endloop
 endfacet
 facet normal -0.5613734722137451 -0.8275625705718994 -0.0
  outer loop
   vertex -0.11741232299804688 -0.161908447265625 0.04
   vertex -0.11741232299804688 -0.161908447265625 0.0
   vertex -0.10702642822265625 -0.16895367431640626 0.04
  endloop
 endfacet
 facet normal -0.5613734722137451 -0.8275625705718994 0.0
  outer loop
   vertex -0.11741232299804688 -0.161908447265625 0.0
   vertex -0.10702642822265625 -0.16895367431640626 0.0
   vertex -0.10702642822265625 -0.16895367431640626 0.04
  endloop
 endfacet
 facet normal -0.5083640217781067 -0.8611422777175903 0.0
  outer loop
   vertex -0.10702642822265625 -0.16895367431640626 0.0
   vertex -0.09621910858154296 -0.17533363342285158 0.0
   vertex -0.10702642822265625 -0.16895367431640626 0.04
  endloop
 endfacet
 facet normal -0.5083640217781067 -0.8611422777175903 0.0
  outer loop
   vertex -0.10702642822265625 -0.16895367431640626 0.04
   vertex -0.09621910858154296 -0.17533363342285158 0.0
   vertex -0.09621910858154296 -0.17533363342285158 0.04
  endloop
 endfacet
 facet normal -0.45335298776626587 -0.8913310766220093 -0.0
  outer loop
   vertex -0.09621910858154296 -0.17533363342285158 0.04
   vertex -0.09621910858154296 -0.17533363342285158 0.0
   vertex -0.08503291320800782 -0.18102320861816407 0.04
  endloop
 endfacet
 facet normal -0.45335298776626587 -0.8913310766220093 0.0
  outer loop
   vertex -0.09621910858154296 -0.17533363342285158 0.0
   vertex -0.08503291320800782 -0.18102320861816407 0.0
   vertex -0.08503291320800782 -0.18102320861816407 0.04
  endloop
 endfacet
 facet normal -0.3965575098991394 -0.918009877204895 0.0
  outer loop
   vertex -0.08503291320800782 -0.18102320861816407 0.0
   vertex -0.07351190185546876 -0.186 0.0
   vertex -0.08503291320800782 -0.18102320861816407 0.04
  endloop
 endfacet
 facet normal -0.3965575098991394 -0.918009877204895 0.0
  outer loop
   vertex -0.08503291320800782 -0.18102320861816407 0.04
   vertex -0.07351190185546876 -0.186 0.0
   vertex -0.07351190185546876 -0.186 0.04
  endloop
 endfacet
 facet normal 0.0 0.0 -1.0
  outer loop
   vertex -0.14564179992675783 -0.13707102966308593 0.0
   vertex -0.12733590698242186 -0.15422569274902345 0.0
   vertex -0.13675810241699218 -0.14593568420410158 0.0
  endloop
 endfacet
 facet normal 0.0 0.0 -1.0
  outer loop
   vertex -0.12733590698242186 -0.15422569274902345 0.0
   vertex -0.10702642822265625 -0.16895367431640626 0.0
   vertex -0.11741232299804688 -0.161908447265625 0.0
  endloop
 endfacet
 facet normal 0.0 0.0 -1.0
  outer loop
   vertex -0.1687235565185547 -0.10738883209228516 0.0
   vertex -0.175126708984375 -0.09659523010253906 0.0
   vertex -0.1616560516357422 -0.11775958251953125 0.0
  endloop
 endfacet
 facet normal 0.0 0.0 -1.0
  outer loop
   vertex -0.1616560516357422 -0.11775958251953125 0.0
   vertex -0.175126708984375 -0.09659523010253906 0.0
   vertex -0.1539520263671875 -0.12766665649414063 0.0
  endloop
 endfacet
 facet normal 0.0 0.0 -1.0
  outer loop
   vertex -0.1539520263671875 -0.12766665649414063 0.0
   vertex -0.175126708984375 -0.09659523010253906 0.0
   vertex -0.14564179992675783 -0.13707102966308593 0.0
  endloop
 endfacet
 facet normal 0.0 0.0 -1.0
  outer loop
   vertex -0.14564179992675783 -0.13707102966308593 0.0
   vertex -0.09621910858154296 -0.17533363342285158 0.0
   vertex -0.12733590698242186 -0.15422569274902345 0.0
  endloop
 endfacet
 facet normal 0.0 0.0 -1.0
  outer loop
   vertex -0.12733590698242186 -0.15422569274902345 0.0
   vertex -0.09621910858154296 -0.17533363342285158 0.0
   vertex -0.10702642822265625 -0.16895367431640626 0.0
  endloop
 endfacet
 facet normal 0.0 0.0 -1.0
  outer loop
   vertex -0.18084027099609376 -0.08542127227783203 0.0
   vertex -0.18584178161621095 -0.07391097259521484 0.0
   vertex -0.175126708984375 -0.09659523010253906 0.0
  endloop
 endfacet
 facet normal 0.0 0.0 -1.0
  outer loop
   vertex -0.175126708984375 -0.09659523010253906 0.0
   vertex -0.18584178161621095 -0.07391097259521484 0.0
   vertex -0.14564179992675783 -0.13707102966308593 0.0
  endloop
 endfacet
 facet normal 0.0 0.0 -1.0
  outer loop
   vertex -0.1936326904296875 -0.050063751220703126 0.0
   vertex -0.19639141845703126 -0.03782073211669922 0.0
   vertex -0.1901115264892578 -0.062109642028808594 0.0
  endloop
 endfacet
 facet normal 0.0 0.0 -1.0
  outer loop
   vertex -0.1901115264892578 -0.062109642028808594 0.0
   vertex -0.19639141845703126 -0.03782073211669922 0.0
   vertex -0.18584178161621095 -0.07391097259521484 0.0
  endloop
 endfacet
 facet normal 0.0 0.0 -1.0
  outer loop
   vertex -0.19639141845703126 -0.03782073211669922 0.0
   vertex -0.19837686157226564 -0.02542879104614258 0.0
   vertex -0.18584178161621095 -0.07391097259521484 0.0
  endloop
 endfacet
 facet normal 0.0 0.0 -1.0
  outer loop
   vertex -0.19958116149902344 -0.012936723709106446 0.0
   vertex -0.19999961853027345 -0.00039371687173843384 0.0
   vertex -0.19837686157226564 -0.02542879104614258 0.0
  endloop
 endfacet
 facet normal 0.0 -0.0 -1.0
  outer loop
   vertex -0.19847543334960938 0.024647552490234377 0.0
   vertex -0.19653880310058594 0.03704721450805664 0.0
   vertex -0.19963055419921874 0.012150840759277344 0.0
  endloop
 endfacet
 facet normal 0.0 0.0 -1.0
  outer loop
   vertex -0.19999961853027345 -0.00039371687173843384 0.0
   vertex -0.19653880310058594 0.03704721450805664 0.0
   vertex -0.19837686157226564 -0.02542879104614258 0.0
  endloop
 endfacet
 facet normal 0.0 -0.0 -1.0
  outer loop
   vertex -0.19963055419921874 0.012150840759277344 0.0
   vertex -0.19653880310058594 0.03704721450805664 0.0
   vertex -0.19999961853027345 -0.00039371687173843384 0.0
  endloop
 endfacet
 facet normal 0.0 -0.0 -1.0
  outer loop
   vertex -0.19382830810546875 0.049301002502441404 0.0
   vertex -0.19035458374023437 0.061360660552978515 0.0
   vertex -0.19653880310058594 0.03704721450805664 0.0
  endloop
 endfacet
 facet normal 0.0 -0.0 -1.0
  outer loop
   vertex -0.19653880310058594 0.03704721450805664 0.0
   vertex -0.18613134765625 0.0731787109375 0.0
   vertex -0.19837686157226564 -0.02542879104614258 0.0
  endloop
 endfacet
 facet normal 0.0 -0.0 -1.0
  outer loop
   vertex -0.19035458374023437 0.061360660552978515 0.0
   vertex -0.18613134765625 0.0731787109375 0.0
   vertex -0.19653880310058594 0.03704721450805664 0.0
  endloop
 endfacet
 facet normal 0.0 0.0 -1.0
  outer loop
   vertex -0.08503291320800782 -0.18102320861816407 0.0
   vertex 0.07351190185546876 -0.186 0.0
   vertex -0.07351190185546876 -0.186 0.0
  endloop
 endfacet
 facet normal 0.0 -0.0 -1.0
  outer loop
   vertex -0.18613134765625 0.0731787109375 0.0
   vertex -0.1755056610107422 0.09590497589111328 0.0
   vertex -0.19837686157226564 -0.02542879104614258 0.0
  endloop
 endfacet
 facet normal 0.0 -0.0 -1.0
  outer loop
   vertex -0.18117518615722655 0.0847086181640625 0.0
   vertex -0.1755056610107422 0.09590497589111328 0.0
   vertex -0.18613134765625 0.0731787109375 0.0
  endloop
 endfacet
 facet normal 0.0 0.0 -1.0
  outer loop
   vertex 0.07351190185546876 -0.186 0.0
   vertex 0.09625543212890625 -0.17531369018554688 0.0
   vertex 0.08505167388916016 -0.18101440429687501 0.0
  endloop
 endfacet
 facet normal 0.0 0.0 -1.0
  outer loop
   vertex -0.08503291320800782 -0.18102320861816407 0.0
   vertex 0.11747941589355469 -0.16185977172851562 0.0
   vertex 0.07351190185546876 -0.186 0.0
  endloop
 endfacet
 facet normal 0.0 0.0 -1.0
  outer loop
   vertex 0.07351190185546876 -0.186 0.0
   vertex 0.11747941589355469 -0.16185977172851562 0.0
   vertex 0.09625543212890625 -0.17531369018554688 0.0
  endloop
 endfacet
 facet normal 0.0 0.0 -1.0
  outer loop
   vertex 0.09625543212890625 -0.17531369018554688 0.0
   vertex 0.11747941589355469 -0.16185977172851562 0.0
   vertex 0.10707894134521484 -0.16892039489746094 0.0
  endloop
 endfacet
 facet normal 0.0 0.0 -1.0
  outer loop
   vertex -0.08503291320800782 -0.18102320861816407 0.0
   vertex 0.1368488006591797 -0.1458506317138672 0.0
   vertex 0.11747941589355469 -0.16185977172851562 0.0
  endloop
 endfacet
 facet normal 0.0 0.0 -1.0
  outer loop
   vertex 0.11747941589355469 -0.16185977172851562 0.0
   vertex 0.1368488006591797 -0.1458506317138672 0.0
   vertex 0.12741578674316406 -0.1541597137451172 0.0
  endloop
 endfacet
 facet normal 0.0 -0.0 -1.0
  outer loop
   vertex -0.1461803436279297 0.13649655151367188 0.0
   vertex -0.13733161926269533 0.14539610290527344 0.0
   vertex -0.15445347595214845 0.12705953216552734 0.0
  endloop
 endfacet
 facet normal 0.0 -0.0 -1.0
  outer loop
   vertex -0.12794213104248048 0.15372315979003906 0.0
   vertex -0.11804887390136719 0.16144491577148437 0.0
   vertex -0.13733161926269533 0.14539610290527344 0.0
  endloop
 endfacet
 facet normal 0.0 -0.0 -1.0
  outer loop
   vertex -0.15445347595214845 0.12705953216552734 0.0
   vertex -0.11804887390136719 0.16144491577148437 0.0
   vertex -0.16211843872070314 0.11712220764160157 0.0
  endloop
 endfacet
 facet normal 0.0 -0.0 -1.0
  outer loop
   vertex -0.16211843872070314 0.11712220764160157 0.0
   vertex -0.11804887390136719 0.16144491577148437 0.0
   vertex -0.16914505004882813 0.10672370910644531 0.0
  endloop
 endfacet
 facet normal 0.0 -0.0 -1.0
  outer loop
   vertex -0.16914505004882813 0.10672370910644531 0.0
   vertex -0.11804887390136719 0.16144491577148437 0.0
   vertex -0.1755056610107422 0.09590497589111328 0.0
  endloop
 endfacet
 facet normal 0.0 -0.0 -1.0
  outer loop
   vertex -0.13733161926269533 0.14539610290527344 0.0
   vertex -0.11804887390136719 0.16144491577148437 0.0
   vertex -0.15445347595214845 0.12705953216552734 0.0
  endloop
 endfacet
 facet normal 0.0 0.0 -1.0
  outer loop
   vertex -0.09621910858154296 -0.17533363342285158 0.0
   vertex 0.1617657928466797 -0.1176087875366211 0.0
   vertex -0.08503291320800782 -0.18102320861816407 0.0
  endloop
 endfacet
 facet normal 0.0 0.0 -1.0
  outer loop
   vertex 0.1368488006591797 -0.1458506317138672 0.0
   vertex 0.1617657928466797 -0.1176087875366211 0.0
   vertex 0.14574118041992187 -0.13696536254882813 0.0
  endloop
 endfacet
 facet normal 0.0 0.0 -1.0
  outer loop
   vertex 0.14574118041992187 -0.13696536254882813 0.0
   vertex 0.1617657928466797 -0.1176087875366211 0.0
   vertex 0.1540577850341797 -0.12753900146484376 0.0
  endloop
 endfacet
 facet normal 0.0 0.0 -1.0
  outer loop
   vertex -0.08503291320800782 -0.18102320861816407 0.0
   vertex 0.1617657928466797 -0.1176087875366211 0.0
   vertex 0.1368488006591797 -0.1458506317138672 0.0
  endloop
 endfacet
 facet normal 0.0 0.0 -1.0
  outer loop
   vertex -0.14564179992675783 -0.13707102966308593 0.0
   vertex 0.1617657928466797 -0.1176087875366211 0.0
   vertex -0.09621910858154296 -0.17533363342285158 0.0
  endloop
 endfacet
 facet normal 0.0 0.0 -1.0
  outer loop
   vertex -0.18584178161621095 -0.07391097259521484 0.0
   vertex -0.0857449722290039 0.18068702697753908 0.0
   vertex -0.14564179992675783 -0.13707102966308593 0.0
  endloop
 endfacet
 facet normal 0.0 -0.0 -1.0
  outer loop
   vertex -0.09690867614746095 0.1749534454345703 0.0
   vertex -0.0857449722290039 0.18068702697753908 0.0
   vertex -0.1076907958984375 0.16853099060058593 0.0
  endloop
 endfacet
 facet normal 0.0 -0.0 -1.0
  outer loop
   vertex -0.1076907958984375 0.16853099060058593 0.0
   vertex -0.0857449722290039 0.18068702697753908 0.0
   vertex -0.11804887390136719 0.16144491577148437 0.0
  endloop
 endfacet
 facet normal 0.0 0.0 -1.0
  outer loop
   vertex -0.19837686157226564 -0.02542879104614258 0.0
   vertex -0.0857449722290039 0.18068702697753908 0.0
   vertex -0.18584178161621095 -0.07391097259521484 0.0
  endloop
 endfacet
 facet normal 0.0 -0.0 -1.0
  outer loop
   vertex -0.1755056610107422 0.09590497589111328 0.0
   vertex -0.0857449722290039 0.18068702697753908 0.0
   vertex -0.19837686157226564 -0.02542879104614258 0.0
  endloop
 endfacet
 facet normal 0.0 -0.0 -1.0
  outer loop
   vertex -0.11804887390136719 0.16144491577148437 0.0
   vertex -0.0857449722290039 0.18068702697753908 0.0
   vertex -0.1755056610107422 0.09590497589111328 0.0
  endloop
 endfacet
 facet normal 0.0 0.0 -1.0
  outer loop
   vertex 0.16883473205566407 -0.10721395874023437 0.0
   vertex 0.18094633483886718 -0.08519636535644531 0.0
   vertex 0.17523667907714843 -0.09639556884765625 0.0
  endloop
 endfacet
 facet normal 0.0 -0.0 -1.0
  outer loop
   vertex -0.07424364471435548 0.18570913696289063 0.0
   vertex -0.06244998168945313 0.19 0.0
   vertex -0.0857449722290039 0.18068702697753908 0.0
  endloop
 endfacet
 facet normal 0.0 0.0 -1.0
  outer loop
   vertex 0.18094633483886718 -0.08519636535644531 0.0
   vertex 0.19371026611328127 -0.04976275634765625 0.0
   vertex 0.185941162109375 -0.07366059112548828 0.0
  endloop
 endfacet
 facet normal 0.0 0.0 -1.0
  outer loop
   vertex 0.185941162109375 -0.07366059112548828 0.0
   vertex 0.19371026611328127 -0.04976275634765625 0.0
   vertex 0.190201416015625 -0.06183381271362305 0.0
  endloop
 endfacet
 facet normal 0.0 0.0 -1.0
  outer loop
   vertex 0.16883473205566407 -0.10721395874023437 0.0
   vertex 0.19371026611328127 -0.04976275634765625 0.0
   vertex 0.18094633483886718 -0.08519636535644531 0.0
  endloop
 endfacet
 facet normal 0.0 0.0 -1.0
  outer loop
   vertex 0.19371026611328127 -0.04976275634765625 0.0
   vertex 0.1984213409423828 -0.02507933807373047 0.0
   vertex 0.19645385742187502 -0.03749510955810547 0.0
  endloop
 endfacet
 facet normal 0.0 0.0 -1.0
  outer loop
   vertex 0.16883473205566407 -0.10721395874023437 0.0
   vertex 0.19960494995117187 -0.01256448745727539 0.0
   vertex 0.19371026611328127 -0.04976275634765625 0.0
  endloop
 endfacet
 facet normal 0.0 0.0 -1.0
  outer loop
   vertex 0.19371026611328127 -0.04976275634765625 0.0
   vertex 0.19960494995117187 -0.01256448745727539 0.0
   vertex 0.1984213409423828 -0.02507933807373047 0.0
  endloop
 endfacet
 facet normal 0.0 0.0 -1.0
  outer loop
   vertex 0.1617657928466797 -0.1176087875366211 0.0
   vertex 0.2 -4.899999880131866e-17 0.0
   vertex 0.16883473205566407 -0.10721395874023437 0.0
  endloop
 endfacet
 facet normal 0.0 0.0 -1.0
  outer loop
   vertex 0.16883473205566407 -0.10721395874023437 0.0
   vertex 0.2 -4.899999880131866e-17 0.0
   vertex 0.19960494995117187 -0.01256448745727539 0.0
  endloop
 endfacet
 facet normal 0.0 0.0 -1.0
  outer loop
   vertex -0.14564179992675783 -0.13707102966308593 0.0
   vertex 0.19960748291015626 0.012524159431457519 0.0
   vertex 0.1617657928466797 -0.1176087875366211 0.0
  endloop
 endfacet
 facet normal 0.0 0.0 -1.0
  outer loop
   vertex 0.1617657928466797 -0.1176087875366211 0.0
   vertex 0.19960748291015626 0.012524159431457519 0.0
   vertex 0.2 -4.899999880131866e-17 0.0
  endloop
 endfacet
 facet normal 0.0 0.0 -1.0
  outer loop
   vertex -0.14564179992675783 -0.13707102966308593 0.0
   vertex 0.19843145751953126 0.02499915885925293 0.0
   vertex 0.19960748291015626 0.012524159431457519 0.0
  endloop
 endfacet
 facet normal 0.0 0.0 -1.0
  outer loop
   vertex 0.19843145751953126 0.02499915885925293 0.0
   vertex 0.19375042724609376 0.04960619354248047 0.0
   vertex 0.19647654724121094 0.03737602996826172 0.0
  endloop
 endfacet
 facet normal 0.0 0.0 -1.0
  outer loop
   vertex 0.19843145751953126 0.02499915885925293 0.0
   vertex 0.19026377868652344 0.06164163970947266 0.0
   vertex 0.19375042724609376 0.04960619354248047 0.0
  endloop
 endfacet
 facet normal -0.0 -0.0 -1.0
  outer loop
   vertex 0.06244998168945313 0.19 0.0
   vertex 0.0742253646850586 0.18571643066406252 0.0
   vertex -0.06244998168945313 0.19 0.0
  endloop
 endfacet
 facet normal 0.0 -0.0 -1.0
  outer loop
   vertex -0.06244998168945313 0.19 0.0
   vertex 0.0742253646850586 0.18571643066406252 0.0
   vertex -0.0857449722290039 0.18068702697753908 0.0
  endloop
 endfacet
 facet normal 0.0 0.0 -1.0
  outer loop
   vertex 0.19026377868652344 0.06164163970947266 0.0
   vertex 0.181066650390625 0.08494037628173828 0.0
   vertex 0.1860303192138672 0.07343513488769532 0.0
  endloop
 endfacet
 facet normal 0.0 0.0 -1.0
  outer loop
   vertex 0.19843145751953126 0.02499915885925293 0.0
   vertex 0.17539225769042968 0.0961122055053711 0.0
   vertex 0.19026377868652344 0.06164163970947266 0.0
  endloop
 endfacet
 facet normal 0.0 0.0 -1.0
  outer loop
   vertex 0.19026377868652344 0.06164163970947266 0.0
   vertex 0.17539225769042968 0.0961122055053711 0.0
   vertex 0.181066650390625 0.08494037628173828 0.0
  endloop
 endfacet
 facet normal 0.0 -0.0 -1.0
  outer loop
   vertex 0.0742253646850586 0.18571643066406252 0.0
   vertex 0.09685700988769531 0.1749820556640625 0.0
   vertex -0.0857449722290039 0.18068702697753908 0.0
  endloop
 endfacet
 facet normal 0.0 -0.0 -1.0
  outer loop
   vertex -0.0857449722290039 0.18068702697753908 0.0
   vertex 0.09685700988769531 0.1749820556640625 0.0
   vertex -0.14564179992675783 -0.13707102966308593 0.0
  endloop
 endfacet
 facet normal -0.0 -0.0 -1.0
  outer loop
   vertex 0.08570940399169923 0.1807039031982422 0.0
   vertex 0.09685700988769531 0.1749820556640625 0.0
   vertex 0.0742253646850586 0.18571643066406252 0.0
  endloop
 endfacet
 facet normal -0.0 -0.0 -1.0
  outer loop
   vertex 0.1076244354248047 0.1685733642578125 0.0
   vertex 0.1179694061279297 0.16150300598144532 0.0
   vertex 0.09685700988769531 0.1749820556640625 0.0
  endloop
 endfacet
 facet normal 0.0 0.0 -1.0
  outer loop
   vertex 0.16902940368652344 0.1069067840576172 0.0
   vertex 0.15434085083007812 0.12719630432128906 0.0
   vertex 0.16200308227539062 0.11728172302246094 0.0
  endloop
 endfacet
 facet normal 0.0 0.0 -1.0
  outer loop
   vertex 0.19843145751953126 0.02499915885925293 0.0
   vertex 0.14607281494140625 0.13661161804199218 0.0
   vertex 0.17539225769042968 0.0961122055053711 0.0
  endloop
 endfacet
 facet normal 0.0 -0.0 -1.0
  outer loop
   vertex 0.09685700988769531 0.1749820556640625 0.0
   vertex 0.14607281494140625 0.13661161804199218 0.0
   vertex -0.14564179992675783 -0.13707102966308593 0.0
  endloop
 endfacet
 facet normal 0.0 0.0 -1.0
  outer loop
   vertex 0.16902940368652344 0.1069067840576172 0.0
   vertex 0.14607281494140625 0.13661161804199218 0.0
   vertex 0.15434085083007812 0.12719630432128906 0.0
  endloop
 endfacet
 facet normal 0.0 0.0 -1.0
  outer loop
   vertex 0.17539225769042968 0.0961122055053711 0.0
   vertex 0.14607281494140625 0.13661161804199218 0.0
   vertex 0.16902940368652344 0.1069067840576172 0.0
  endloop
 endfacet
 facet normal 0.0 0.0 -1.0
  outer loop
   vertex -0.14564179992675783 -0.13707102966308593 0.0
   vertex 0.14607281494140625 0.13661161804199218 0.0
   vertex 0.19843145751953126 0.02499915885925293 0.0
  endloop
 endfacet
 facet normal -0.0 -0.0 -1.0
  outer loop
   vertex 0.1179694061279297 0.16150300598144532 0.0
   vertex 0.1372313995361328 0.14549069213867188 0.0
   vertex 0.09685700988769531 0.1749820556640625 0.0
  endloop
 endfacet
 facet normal 0.0 0.0 -1.0
  outer loop
   vertex 0.09685700988769531 0.1749820556640625 0.0
   vertex 0.1372313995361328 0.14549069213867188 0.0
   vertex 0.14607281494140625 0.13661161804199218 0.0
  endloop
 endfacet
 facet normal -0.0 -0.0 -1.0
  outer loop
   vertex 0.12785132598876953 0.15379869079589845 0.0
   vertex 0.1372313995361328 0.14549069213867188 0.0
   vertex 0.1179694061279297 0.16150300598144532 0.0
  endloop
 endfacet
 facet normal 0.3966044485569 -0.9179896116256714 0.0
  outer loop
   vertex 0.07351190185546876 -0.186 0.0
   vertex 0.08505167388916016 -0.18101440429687501 0.0
   vertex 0.07351190185546876 -0.186 0.04
  endloop
 endfacet
 facet normal 0.3966044485569 -0.9179896116256714 0.0
  outer loop
   vertex 0.07351190185546876 -0.186 0.04
   vertex 0.08505167388916016 -0.18101440429687501 0.0
   vertex 0.08505167388916016 -0.18101440429687501 0.04
  endloop
 endfacet
 facet normal 0.4534924030303955 -0.8912601470947266 0.0
  outer loop
   vertex 0.08505167388916016 -0.18101440429687501 0.04
   vertex 0.09625543212890625 -0.17531369018554688 0.0
   vertex 0.09625543212890625 -0.17531369018554688 0.04
  endloop
 endfacet
 facet normal 0.4534924030303955 -0.8912601470947266 0.0
  outer loop
   vertex 0.08505167388916016 -0.18101440429687501 0.0
   vertex 0.09625543212890625 -0.17531369018554688 0.0
   vertex 0.08505167388916016 -0.18101440429687501 0.04
  endloop
 endfacet
 facet normal 0.5085869431495667 -0.8610106706619263 0.0
  outer loop
   vertex 0.09625543212890625 -0.17531369018554688 0.04
   vertex 0.10707894134521484 -0.16892039489746094 0.0
   vertex 0.10707894134521484 -0.16892039489746094 0.04
  endloop
 endfacet
 facet normal 0.5616734623908997 -0.8273590207099915 0.0
  outer loop
   vertex 0.10707894134521484 -0.16892039489746094 0.04
   vertex 0.10707894134521484 -0.16892039489746094 0.0
   vertex 0.11747941589355469 -0.16185977172851562 0.04
  endloop
 endfacet
 facet normal 0.5085869431495667 -0.8610106706619263 0.0
  outer loop
   vertex 0.09625543212890625 -0.17531369018554688 0.0
   vertex 0.10707894134521484 -0.16892039489746094 0.0
   vertex 0.09625543212890625 -0.17531369018554688 0.04
  endloop
 endfacet
 facet normal 0.5616734623908997 -0.8273590207099915 0.0
  outer loop
   vertex 0.10707894134521484 -0.16892039489746094 0.0
   vertex 0.11747941589355469 -0.16185977172851562 0.0
   vertex 0.11747941589355469 -0.16185977172851562 0.04
  endloop
 endfacet
 facet normal 0.6125403642654419 -0.790439248085022 0.0
  outer loop
   vertex 0.11747941589355469 -0.16185977172851562 0.04
   vertex 0.11747941589355469 -0.16185977172851562 0.0
   vertex 0.12741578674316406 -0.1541597137451172 0.04
  endloop
 endfacet
 facet normal 0.6125403642654419 -0.790439248085022 0.0
  outer loop
   vertex 0.11747941589355469 -0.16185977172851562 0.0
   vertex 0.12741578674316406 -0.1541597137451172 0.0
   vertex 0.12741578674316406 -0.1541597137451172 0.04
  endloop
 endfacet
 facet normal 0.6609877943992615 -0.7503966093063354 0.0
  outer loop
   vertex 0.12741578674316406 -0.1541597137451172 0.04
   vertex 0.1368488006591797 -0.1458506317138672 0.0
   vertex 0.1368488006591797 -0.1458506317138672 0.04
  endloop
 endfacet
 facet normal 0.7068238854408264 -0.7073895335197449 0.0
  outer loop
   vertex 0.1368488006591797 -0.1458506317138672 0.04
   vertex 0.1368488006591797 -0.1458506317138672 0.0
   vertex 0.14574118041992187 -0.13696536254882813 0.04
  endloop
 endfacet
 facet normal 0.6609877943992615 -0.7503966093063354 0.0
  outer loop
   vertex 0.12741578674316406 -0.1541597137451172 0.0
   vertex 0.1368488006591797 -0.1458506317138672 0.0
   vertex 0.12741578674316406 -0.1541597137451172 0.04
  endloop
 endfacet
 facet normal 0.7498683333396912 -0.6615870594978333 0.0
  outer loop
   vertex 0.14574118041992187 -0.13696536254882813 0.04
   vertex 0.14574118041992187 -0.13696536254882813 0.0
   vertex 0.1540577850341797 -0.12753900146484376 0.04
  endloop
 endfacet
 facet normal 0.7068238854408264 -0.7073895335197449 0.0
  outer loop
   vertex 0.1368488006591797 -0.1458506317138672 0.0
   vertex 0.14574118041992187 -0.13696536254882813 0.0
   vertex 0.14574118041992187 -0.13696536254882813 0.04
  endloop
 endfacet
 facet normal 0.7498683333396912 -0.6615870594978333 0.0
  outer loop
   vertex 0.14574118041992187 -0.13696536254882813 0.0
   vertex 0.1540577850341797 -0.12753900146484376 0.0
   vertex 0.1540577850341797 -0.12753900146484376 0.04
  endloop
 endfacet
 facet normal 0.7899490594863892 -0.6131724715232849 0.0
  outer loop
   vertex 0.1540577850341797 -0.12753900146484376 0.04
   vertex 0.1617657928466797 -0.1176087875366211 0.0
   vertex 0.1617657928466797 -0.1176087875366211 0.04
  endloop
 endfacet
 facet normal 0.8269096612930298 -0.5623348355293274 0.0
  outer loop
   vertex 0.1617657928466797 -0.1176087875366211 0.04
   vertex 0.1617657928466797 -0.1176087875366211 0.0
   vertex 0.16883473205566407 -0.10721395874023437 0.04
  endloop
 endfacet
 facet normal 0.7899490594863892 -0.6131724715232849 0.0
  outer loop
   vertex 0.1540577850341797 -0.12753900146484376 0.0
   vertex 0.1617657928466797 -0.1176087875366211 0.0
   vertex 0.1540577850341797 -0.12753900146484376 0.04
  endloop
 endfacet
 facet normal 0.8269096612930298 -0.5623348355293274 0.0
  outer loop
   vertex 0.1617657928466797 -0.1176087875366211 0.0
   vertex 0.16883473205566407 -0.10721395874023437 0.0
   vertex 0.16883473205566407 -0.10721395874023437 0.04
  endloop
 endfacet
 facet normal 0.8606036901473999 -0.5092753171920776 0.0
  outer loop
   vertex 0.16883473205566407 -0.10721395874023437 0.04
   vertex 0.17523667907714843 -0.09639556884765625 0.0
   vertex 0.17523667907714843 -0.09639556884765625 0.04
  endloop
 endfacet
 facet normal 0.8606036901473999 -0.5092753171920776 0.0
  outer loop
   vertex 0.16883473205566407 -0.10721395874023437 0.0
   vertex 0.17523667907714843 -0.09639556884765625 0.0
   vertex 0.16883473205566407 -0.10721395874023437 0.04
  endloop
 endfacet
 facet normal 0.8908978700637817 -0.454203724861145 0.0
  outer loop
   vertex 0.17523667907714843 -0.09639556884765625 0.04
   vertex 0.18094633483886718 -0.08519636535644531 0.0
   vertex 0.18094633483886718 -0.08519636535644531 0.04
  endloop
 endfacet
 facet normal 0.9176719188690186 -0.39733898639678955 0.0
  outer loop
   vertex 0.18094633483886718 -0.08519636535644531 0.04
   vertex 0.18094633483886718 -0.08519636535644531 0.0
   vertex 0.185941162109375 -0.07366059112548828 0.04
  endloop
 endfacet
 facet normal 0.8908978700637817 -0.454203724861145 0.0
  outer loop
   vertex 0.17523667907714843 -0.09639556884765625 0.0
   vertex 0.18094633483886718 -0.08519636535644531 0.0
   vertex 0.17523667907714843 -0.09639556884765625 0.04
  endloop
 endfacet
 facet normal 0.9176719188690186 -0.39733898639678955 0.0
  outer loop
   vertex 0.18094633483886718 -0.08519636535644531 0.0
   vertex 0.185941162109375 -0.07366059112548828 0.0
   vertex 0.185941162109375 -0.07366059112548828 0.04
  endloop
 endfacet
 facet normal 0.9408211708068848 -0.338903546333313 0.0
  outer loop
   vertex 0.185941162109375 -0.07366059112548828 0.04
   vertex 0.190201416015625 -0.06183381271362305 0.0
   vertex 0.190201416015625 -0.06183381271362305 0.04
  endloop
 endfacet
 facet normal 0.9408211708068848 -0.338903546333313 0.0
  outer loop
   vertex 0.185941162109375 -0.07366059112548828 0.0
   vertex 0.190201416015625 -0.06183381271362305 0.0
   vertex 0.185941162109375 -0.07366059112548828 0.04
  endloop
 endfacet
 facet normal 0.9602535367012024 -0.2791293263435364 0.0
  outer loop
   vertex 0.190201416015625 -0.06183381271362305 0.04
   vertex 0.19371026611328127 -0.04976275634765625 0.0
   vertex 0.19371026611328127 -0.04976275634765625 0.04
  endloop
 endfacet
 facet normal 0.9602535367012024 -0.2791293263435364 0.0
  outer loop
   vertex 0.190201416015625 -0.06183381271362305 0.0
   vertex 0.19371026611328127 -0.04976275634765625 0.0
   vertex 0.190201416015625 -0.06183381271362305 0.04
  endloop
 endfacet
 facet normal 0.9758922457695007 -0.21825291216373444 0.0
  outer loop
   vertex 0.19371026611328127 -0.04976275634765625 0.04
   vertex 0.19645385742187502 -0.03749510955810547 0.0
   vertex 0.19645385742187502 -0.03749510955810547 0.04
  endloop
 endfacet
 facet normal 0.9758922457695007 -0.21825291216373444 0.0
  outer loop
   vertex 0.19371026611328127 -0.04976275634765625 0.0
   vertex 0.19645385742187502 -0.03749510955810547 0.0
   vertex 0.19371026611328127 -0.04976275634765625 0.04
  endloop
 endfacet
 facet normal 0.9876758456230164 -0.156513512134552 0.0
  outer loop
   vertex 0.19645385742187502 -0.03749510955810547 0.04
   vertex 0.1984213409423828 -0.02507933807373047 0.0
   vertex 0.1984213409423828 -0.02507933807373047 0.04
  endloop
 endfacet
 facet normal 0.9876758456230164 -0.156513512134552 0.0
  outer loop
   vertex 0.19645385742187502 -0.03749510955810547 0.0
   vertex 0.1984213409423828 -0.02507933807373047 0.0
   vertex 0.19645385742187502 -0.03749510955810547 0.04
  endloop
 endfacet
 facet normal 0.9955574870109558 -0.09415619820356369 0.0
  outer loop
   vertex 0.1984213409423828 -0.02507933807373047 0.04
   vertex 0.19960494995117187 -0.01256448745727539 0.0
   vertex 0.19960494995117187 -0.01256448745727539 0.04
  endloop
 endfacet
 facet normal 0.9955574870109558 -0.09415619820356369 0.0
  outer loop
   vertex 0.1984213409423828 -0.02507933807373047 0.0
   vertex 0.19960494995117187 -0.01256448745727539 0.0
   vertex 0.1984213409423828 -0.02507933807373047 0.04
  endloop
 endfacet
 facet normal 0.9995061159133911 -0.031426265835762024 0.0
  outer loop
   vertex 0.19960494995117187 -0.01256448745727539 0.04
   vertex 0.2 -4.899999880131866e-17 0.0
   vertex 0.2 -4.899999880131866e-17 0.04
  endloop
 endfacet
 facet normal 0.9995061159133911 -0.031426265835762024 0.0
  outer loop
   vertex 0.19960494995117187 -0.01256448745727539 0.0
   vertex 0.2 -4.899999880131866e-17 0.0
   vertex 0.19960494995117187 -0.01256448745727539 0.04
  endloop
 endfacet
 facet normal 0.9995092749595642 0.03132541477680206 0.0
  outer loop
   vertex 0.2 -4.899999880131866e-17 0.04
   vertex 0.19960748291015626 0.012524159431457519 0.0
   vertex 0.19960748291015626 0.012524159431457519 0.04
  endloop
 endfacet
 facet normal 0.9955859184265137 0.09385445713996887 0.0
  outer loop
   vertex 0.19960748291015626 0.012524159431457519 0.04
   vertex 0.19960748291015626 0.012524159431457519 0.0
   vertex 0.19843145751953126 0.02499915885925293 0.04
  endloop
 endfacet
 facet normal 0.9995092749595642 0.03132541477680206 -0.0
  outer loop
   vertex 0.2 -4.899999880131866e-17 0.0
   vertex 0.19960748291015626 0.012524159431457519 0.0
   vertex 0.2 -4.899999880131866e-17 0.04
  endloop
 endfacet
 facet normal 0.9955859184265137 0.09385445713996887 0.0
  outer loop
   vertex 0.19960748291015626 0.012524159431457519 0.0
   vertex 0.19843145751953126 0.02499915885925293 0.0
   vertex 0.19843145751953126 0.02499915885925293 0.04
  endloop
 endfacet
 facet normal 0.9877547025680542 0.156014546751976 0.0
  outer loop
   vertex 0.19843145751953126 0.02499915885925293 0.04
   vertex 0.19647654724121094 0.03737602996826172 0.0
   vertex 0.19647654724121094 0.03737602996826172 0.04
  endloop
 endfacet
 facet normal 0.9877547025680542 0.156014546751976 -0.0
  outer loop
   vertex 0.19843145751953126 0.02499915885925293 0.0
   vertex 0.19647654724121094 0.03737602996826172 0.0
   vertex 0.19843145751953126 0.02499915885925293 0.04
  endloop
 endfacet
 facet normal 0.9760465025901794 0.21756207942962646 0.0
  outer loop
   vertex 0.19647654724121094 0.03737602996826172 0.04
   vertex 0.19375042724609376 0.04960619354248047 0.0
   vertex 0.19375042724609376 0.04960619354248047 0.04
  endloop
 endfacet
 facet normal 0.9605066180229187 0.2782571613788605 0.0
  outer loop
   vertex 0.19375042724609376 0.04960619354248047 0.04
   vertex 0.19375042724609376 0.04960619354248047 0.0
   vertex 0.19026377868652344 0.06164163970947266 0.04
  endloop
 endfacet
 facet normal 0.9760465025901794 0.21756207942962646 -0.0
  outer loop
   vertex 0.19647654724121094 0.03737602996826172 0.0
   vertex 0.19375042724609376 0.04960619354248047 0.0
   vertex 0.19647654724121094 0.03737602996826172 0.04
  endloop
 endfacet
 facet normal 0.9411972761154175 0.3378574848175049 0.0
  outer loop
   vertex 0.19026377868652344 0.06164163970947266 0.04
   vertex 0.19026377868652344 0.06164163970947266 0.0
   vertex 0.1860303192138672 0.07343513488769532 0.04
  endloop
 endfacet
 facet normal 0.9605066180229187 0.2782571613788605 0.0
  outer loop
   vertex 0.19375042724609376 0.04960619354248047 0.0
   vertex 0.19026377868652344 0.06164163970947266 0.0
   vertex 0.19026377868652344 0.06164163970947266 0.04
  endloop
 endfacet
 facet normal 0.9411972761154175 0.3378574848175049 0.0
  outer loop
   vertex 0.19026377868652344 0.06164163970947266 0.0
   vertex 0.1860303192138672 0.07343513488769532 0.0
   vertex 0.1860303192138672 0.07343513488769532 0.04
  endloop
 endfacet
 facet normal 0.9181931614875793 0.39613309502601624 0.0
  outer loop
   vertex 0.1860303192138672 0.07343513488769532 0.04
   vertex 0.181066650390625 0.08494037628173828 0.0
   vertex 0.181066650390625 0.08494037628173828 0.04
  endloop
 endfacet
 facet normal 0.8915849328041077 0.45285359025001526 0.0
  outer loop
   vertex 0.181066650390625 0.08494037628173828 0.04
   vertex 0.181066650390625 0.08494037628173828 0.0
   vertex 0.17539225769042968 0.0961122055053711 0.04
  endloop
 endfacet
 facet normal 0.9181931614875793 0.39613309502601624 -0.0
  outer loop
   vertex 0.1860303192138672 0.07343513488769532 0.0
   vertex 0.181066650390625 0.08494037628173828 0.0
   vertex 0.1860303192138672 0.07343513488769532 0.04
  endloop
 endfacet
 facet normal 0.8915849328041077 0.45285359025001526 0.0
  outer loop
   vertex 0.181066650390625 0.08494037628173828 0.0
   vertex 0.17539225769042968 0.0961122055053711 0.0
   vertex 0.17539225769042968 0.0961122055053711 0.04
  endloop
 endfacet
 facet normal 0.8614768981933594 0.5077967047691345 0.0
  outer loop
   vertex 0.17539225769042968 0.0961122055053711 0.04
   vertex 0.16902940368652344 0.1069067840576172 0.0
   vertex 0.16902940368652344 0.1069067840576172 0.04
  endloop
 endfacet
 facet normal 0.8614768981933594 0.5077967047691345 -0.0
  outer loop
   vertex 0.17539225769042968 0.0961122055053711 0.0
   vertex 0.16902940368652344 0.1069067840576172 0.0
   vertex 0.17539225769042968 0.0961122055053711 0.04
  endloop
 endfacet
 facet normal 0.8279877305030823 0.5607461929321289 0.0
  outer loop
   vertex 0.16902940368652344 0.1069067840576172 0.04
   vertex 0.16200308227539062 0.11728172302246094 0.0
   vertex 0.16200308227539062 0.11728172302246094 0.04
  endloop
 endfacet
 facet normal 0.8279877305030823 0.5607461929321289 -0.0
  outer loop
   vertex 0.16902940368652344 0.1069067840576172 0.0
   vertex 0.16200308227539062 0.11728172302246094 0.0
   vertex 0.16902940368652344 0.1069067840576172 0.04
  endloop
 endfacet
 facet normal 0.7912477850914001 0.6114956736564636 -0.0
  outer loop
   vertex 0.16200308227539062 0.11728172302246094 0.0
   vertex 0.15434085083007812 0.12719630432128906 0.0
   vertex 0.16200308227539062 0.11728172302246094 0.04
  endloop
 endfacet
 facet normal 0.7912477850914001 0.6114956736564636 0.0
  outer loop
   vertex 0.16200308227539062 0.11728172302246094 0.04
   vertex 0.15434085083007812 0.12719630432128906 0.0
   vertex 0.15434085083007812 0.12719630432128906 0.04
  endloop
 endfacet
 facet normal 0.7514033913612366 0.6598431468009949 -0.0
  outer loop
   vertex 0.15434085083007812 0.12719630432128906 0.0
   vertex 0.14607281494140625 0.13661161804199218 0.0
   vertex 0.15434085083007812 0.12719630432128906 0.04
  endloop
 endfacet
 facet normal 0.7514033913612366 0.6598431468009949 0.0
  outer loop
   vertex 0.15434085083007812 0.12719630432128906 0.04
   vertex 0.14607281494140625 0.13661161804199218 0.0
   vertex 0.14607281494140625 0.13661161804199218 0.04
  endloop
 endfacet
 facet normal 0.7086079120635986 0.7056025266647339 -0.0
  outer loop
   vertex 0.14607281494140625 0.13661161804199218 0.0
   vertex 0.1372313995361328 0.14549069213867188 0.0
   vertex 0.14607281494140625 0.13661161804199218 0.04
  endloop
 endfacet
 facet normal 0.7086079120635986 0.7056025266647339 0.0
  outer loop
   vertex 0.14607281494140625 0.13661161804199218 0.04
   vertex 0.1372313995361328 0.14549069213867188 0.0
   vertex 0.1372313995361328 0.14549069213867188 0.04
  endloop
 endfacet
 facet normal 0.6630322337150574 0.7485907673835754 -0.0
  outer loop
   vertex 0.1372313995361328 0.14549069213867188 0.0
   vertex 0.12785132598876953 0.15379869079589845 0.0
   vertex 0.1372313995361328 0.14549069213867188 0.04
  endloop
 endfacet
 facet normal 0.6630322337150574 0.7485907673835754 0.0
  outer loop
   vertex 0.1372313995361328 0.14549069213867188 0.04
   vertex 0.12785132598876953 0.15379869079589845 0.0
   vertex 0.12785132598876953 0.15379869079589845 0.04
  endloop
 endfacet
 facet normal 0.6148540377616882 0.7886409163475037 -0.0
  outer loop
   vertex 0.12785132598876953 0.15379869079589845 0.0
   vertex 0.1179694061279297 0.16150300598144532 0.0
   vertex 0.12785132598876953 0.15379869079589845 0.04
  endloop
 endfacet
 facet normal 0.6148540377616882 0.7886409163475037 0.0
  outer loop
   vertex 0.12785132598876953 0.15379869079589845 0.04
   vertex 0.1179694061279297 0.16150300598144532 0.0
   vertex 0.1179694061279297 0.16150300598144532 0.04
  endloop
 endfacet
 facet normal 0.5642609596252441 0.8255965113639832 -0.0
  outer loop
   vertex 0.1179694061279297 0.16150300598144532 0.0
   vertex 0.1076244354248047 0.1685733642578125 0.0
   vertex 0.1179694061279297 0.16150300598144532 0.04
  endloop
 endfacet
 facet normal 0.5642609596252441 0.8255965113639832 0.0
  outer loop
   vertex 0.1179694061279297 0.16150300598144532 0.04
   vertex 0.1076244354248047 0.1685733642578125 0.0
   vertex 0.1076244354248047 0.1685733642578125 0.04
  endloop
 endfacet
 facet normal 0.5114549994468689 0.8593101501464844 -0.0
  outer loop
   vertex 0.1076244354248047 0.1685733642578125 0.0
   vertex 0.09685700988769531 0.1749820556640625 0.0
   vertex 0.1076244354248047 0.1685733642578125 0.04
  endloop
 endfacet
 facet normal 0.5114549994468689 0.8593101501464844 0.0
  outer loop
   vertex 0.1076244354248047 0.1685733642578125 0.04
   vertex 0.09685700988769531 0.1749820556640625 0.0
   vertex 0.09685700988769531 0.1749820556640625 0.04
  endloop
 endfacet
 facet normal 0.4566405415534973 0.8896512389183044 0.0
  outer loop
   vertex 0.09685700988769531 0.1749820556640625 0.04
   vertex 0.09685700988769531 0.1749820556640625 0.0
   vertex 0.08570940399169923 0.1807039031982422 0.04
  endloop
 endfacet
 facet normal 0.4566405415534973 0.8896512389183044 0.0
  outer loop
   vertex 0.09685700988769531 0.1749820556640625 0.0
   vertex 0.08570940399169923 0.1807039031982422 0.0
   vertex 0.08570940399169923 0.1807039031982422 0.04
  endloop
 endfacet
 facet normal 0.40003231167793274 0.9165011048316956 -0.0
  outer loop
   vertex 0.08570940399169923 0.1807039031982422 0.0
   vertex 0.0742253646850586 0.18571643066406252 0.0
   vertex 0.08570940399169923 0.1807039031982422 0.04
  endloop
 endfacet
 facet normal 0.40003231167793274 0.9165011048316956 0.0
  outer loop
   vertex 0.08570940399169923 0.1807039031982422 0.04
   vertex 0.0742253646850586 0.18571643066406252 0.0
   vertex 0.0742253646850586 0.18571643066406252 0.04
  endloop
 endfacet
 facet normal 0.3418566882610321 0.9397521018981934 0.0
  outer loop
   vertex 0.0742253646850586 0.18571643066406252 0.04
   vertex 0.06244998168945313 0.19 0.0
   vertex 0.06244998168945313 0.19 0.04
  endloop
 endfacet
 facet normal 0.3418566882610321 0.9397521018981934 -0.0
  outer loop
   vertex 0.0742253646850586 0.18571643066406252 0.0
   vertex 0.06244998168945313 0.19 0.0
   vertex 0.0742253646850586 0.18571643066406252 0.04
  endloop
 endfacet
endsolid patch_2_0
