solid patch_0_0
 facet normal 0.3873099684715271 -0.9219496250152588 0.0
  outer loop
   vertex 0.07351190185546876 -0.186 0.0
   vertex 0.08137693786621093 -0.18269590759277343 0.0
   vertex 0.07351190185546876 -0.186 0.04
  endloop
 endfacet
 facet normal 0.3873099684715271 -0.9219496250152588 0.0
  outer loop
   vertex 0.07351190185546876 -0.186 0.04
   vertex 0.08137693786621093 -0.18269590759277343 0.0
   vertex 0.08137693786621093 -0.18269590759277343 0.04
  endloop
 endfacet
 facet normal 0.4262739419937134 -0.9045941233634949 0.0
  outer loop
   vertex 0.08137693786621093 -0.18269590759277343 0.04
   vertex 0.08137693786621093 -0.18269590759277343 0.0
   vertex 0.0890939178466797 -0.17905941772460937 0.04
  endloop
 endfacet
 facet normal 0.4262739419937134 -0.9045941233634949 0.0
  outer loop
   vertex 0.08137693786621093 -0.18269590759277343 0.0
   vertex 0.0890939178466797 -0.17905941772460937 0.0
   vertex 0.0890939178466797 -0.17905941772460937 0.04
  endloop
 endfacet
 facet normal 0.4644620418548584 -0.8855929970741272 0.0
  outer loop
   vertex 0.0890939178466797 -0.17905941772460937 0.04
   vertex 0.09664879608154298 -0.17509715270996093 0.0
   vertex 0.09664879608154298 -0.17509715270996093 0.04
  endloop
 endfacet
 facet normal 0.4644620418548584 -0.8855929970741272 0.0
  outer loop
   vertex 0.0890939178466797 -0.17905941772460937 0.0
   vertex 0.09664879608154298 -0.17509715270996093 0.0
   vertex 0.0890939178466797 -0.17905941772460937 0.04
  endloop
 endfacet
 facet normal 0.501806914806366 -0.8649796843528748 0.0
  outer loop
   vertex 0.09664879608154298 -0.17509715270996093 0.04
   vertex 0.10402783203125 -0.17081629943847657 0.0
   vertex 0.10402783203125 -0.17081629943847657 0.04
  endloop
 endfacet
 facet normal 0.501806914806366 -0.8649796843528748 0.0
  outer loop
   vertex 0.09664879608154298 -0.17509715270996093 0.0
   vertex 0.10402783203125 -0.17081629943847657 0.0
   vertex 0.09664879608154298 -0.17509715270996093 0.04
  endloop
 endfacet
 facet normal 0.538235068321228 -0.8427947759628296 0.0
  outer loop
   vertex 0.10402783203125 -0.17081629943847657 0.04
   vertex 0.11121760559082032 -0.16622468566894533 0.0
   vertex 0.11121760559082032 -0.16622468566894533 0.04
  endloop
 endfacet
 facet normal 0.538235068321228 -0.8427947759628296 0.0
  outer loop
   vertex 0.10402783203125 -0.17081629943847657 0.0
   vertex 0.11121760559082032 -0.16622468566894533 0.0
   vertex 0.10402783203125 -0.17081629943847657 0.04
  endloop
 endfacet
 facet normal 0.5736876726150513 -0.8190740942955017 0.0
  outer loop
   vertex 0.11121760559082032 -0.16622468566894533 0.04
   vertex 0.11820502471923829 -0.16133062744140625 0.0
   vertex 0.11820502471923829 -0.16133062744140625 0.04
  endloop
 endfacet
 facet normal 0.5736876726150513 -0.8190740942955017 0.0
  outer loop
   vertex 0.11121760559082032 -0.16622468566894533 0.0
   vertex 0.11820502471923829 -0.16133062744140625 0.0
   vertex 0.11121760559082032 -0.16622468566894533 0.04
  endloop
 endfacet
 facet normal 0.6080942749977112 -0.7938647866249084 0.0
  outer loop
   vertex 0.11820502471923829 -0.16133062744140625 0.04
   vertex 0.12497738647460938 -0.15614305114746094 0.0
   vertex 0.12497738647460938 -0.15614305114746094 0.04
  endloop
 endfacet
 facet normal 0.6080942749977112 -0.7938647866249084 0.0
  outer loop
   vertex 0.11820502471923829 -0.16133062744140625 0.0
   vertex 0.12497738647460938 -0.15614305114746094 0.0
   vertex 0.11820502471923829 -0.16133062744140625 0.04
  endloop
 endfacet
 facet normal 0.641395092010498 -0.7672107815742493 0.0
  outer loop
   vertex 0.12497738647460938 -0.15614305114746094 0.04
   vertex 0.13152236938476564 -0.15067138671875 0.0
   vertex 0.13152236938476564 -0.15067138671875 0.04
  endloop
 endfacet
 facet normal 0.641395092010498 -0.7672107815742493 0.0
  outer loop
   vertex 0.12497738647460938 -0.15614305114746094 0.0
   vertex 0.13152236938476564 -0.15067138671875 0.0
   vertex 0.12497738647460938 -0.15614305114746094 0.04
  endloop
 endfacet
 facet normal 0.673529326915741 -0.7391604781150818 0.0
  outer loop
   vertex 0.13152236938476564 -0.15067138671875 0.04
   vertex 0.1378280487060547 -0.14492559814453126 0.0
   vertex 0.1378280487060547 -0.14492559814453126 0.04
  endloop
 endfacet
 facet normal 0.673529326915741 -0.7391604781150818 0.0
  outer loop
   vertex 0.13152236938476564 -0.15067138671875 0.0
   vertex 0.1378280487060547 -0.14492559814453126 0.0
   vertex 0.13152236938476564 -0.15067138671875 0.04
  endloop
 endfacet
 facet normal 0.7044384479522705 -0.7097650766372681 0.0
  outer loop
   vertex 0.1378280487060547 -0.14492559814453126 0.0
   vertex 0.14388296508789064 -0.13891612243652343 0.0
   vertex 0.1378280487060547 -0.14492559814453126 0.04
  endloop
 endfacet
 facet normal 0.7044384479522705 -0.7097650766372681 0.0
  outer loop
   vertex 0.1378280487060547 -0.14492559814453126 0.04
   vertex 0.14388296508789064 -0.13891612243652343 0.0
   vertex 0.14388296508789064 -0.13891612243652343 0.04
  endloop
 endfacet
 facet normal 0.7340637445449829 -0.6790805459022522 0.0
  outer loop
   vertex 0.14388296508789064 -0.13891612243652343 0.0
   vertex 0.1496761169433594 -0.13265391540527344 0.0
   vertex 0.14388296508789064 -0.13891612243652343 0.04
  endloop
 endfacet
 facet normal 0.7340637445449829 -0.6790805459022522 0.0
  outer loop
   vertex 0.14388296508789064 -0.13891612243652343 0.04
   vertex 0.1496761169433594 -0.13265391540527344 0.0
   vertex 0.1496761169433594 -0.13265391540527344 0.04
  endloop
 endfacet
 facet normal 0.7623565793037415 -0.6471572518348694 0.0
  outer loop
   vertex 0.1496761169433594 -0.13265391540527344 0.0
   vertex 0.15519692993164064 -0.12615035247802733 0.0
   vertex 0.1496761169433594 -0.13265391540527344 0.04
  endloop
 endfacet
 facet normal 0.7623565793037415 -0.6471572518348694 0.0
  outer loop
   vertex 0.1496761169433594 -0.13265391540527344 0.04
   vertex 0.15519692993164064 -0.12615035247802733 0.0
   vertex 0.15519692993164064 -0.12615035247802733 0.04
  endloop
 endfacet
 facet normal 0.7892598509788513 -0.6140593886375427 0.0
  outer loop
   vertex 0.15519692993164064 -0.12615035247802733 0.0
   vertex 0.16043539428710937 -0.11941727447509766 0.0
   vertex 0.15519692993164064 -0.12615035247802733 0.04
  endloop
 endfacet
 facet normal 0.7892598509788513 -0.6140593886375427 0.0
  outer loop
   vertex 0.15519692993164064 -0.12615035247802733 0.04
   vertex 0.16043539428710937 -0.11941727447509766 0.0
   vertex 0.16043539428710937 -0.11941727447509766 0.04
  endloop
 endfacet
 facet normal 0.8147285580635071 -0.5798424482345581 0.0
  outer loop
   vertex 0.16043539428710937 -0.11941727447509766 0.0
   vertex 0.1653819580078125 -0.11246692657470703 0.0
   vertex 0.16043539428710937 -0.11941727447509766 0.04
  endloop
 endfacet
 facet normal 0.8147285580635071 -0.5798424482345581 0.0
  outer loop
   vertex 0.16043539428710937 -0.11941727447509766 0.04
   vertex 0.1653819580078125 -0.11246692657470703 0.0
   vertex 0.1653819580078125 -0.11246692657470703 0.04
  endloop
 endfacet
 facet normal 0.8387150168418884 -0.5445705652236938 0.0
  outer loop
   vertex 0.1653819580078125 -0.11246692657470703 0.0
   vertex 0.17002761840820313 -0.10531195831298829 0.0
   vertex 0.1653819580078125 -0.11246692657470703 0.04
  endloop
 endfacet
 facet normal 0.8387150168418884 -0.5445705652236938 0.0
  outer loop
   vertex 0.1653819580078125 -0.11246692657470703 0.04
   vertex 0.17002761840820313 -0.10531195831298829 0.0
   vertex 0.17002761840820313 -0.10531195831298829 0.04
  endloop
 endfacet
 facet normal 0.8611748218536377 -0.5083089470863342 0.0
  outer loop
   vertex 0.17002761840820313 -0.10531195831298829 0.04
   vertex 0.17002761840820313 -0.10531195831298829 0.0
   vertex 0.17436393737792968 -0.09796538543701172 0.04
  endloop
 endfacet
 facet normal 0.8611748218536377 -0.5083089470863342 0.0
  outer loop
   vertex 0.17002761840820313 -0.10531195831298829 0.0
   vertex 0.17436393737792968 -0.09796538543701172 0.0
   vertex 0.17436393737792968 -0.09796538543701172 0.04
  endloop
 endfacet
 facet normal 0.8820677399635315 -0.4711226224899292 0.0
  outer loop
   vertex 0.17436393737792968 -0.09796538543701172 0.0
   vertex 0.17838302612304688 -0.0904405746459961 0.0
   vertex 0.17436393737792968 -0.09796538543701172 0.04
  endloop
 endfacet
 facet normal 0.8820677399635315 -0.4711226224899292 0.0
  outer loop
   vertex 0.17436393737792968 -0.09796538543701172 0.04
   vertex 0.17838302612304688 -0.0904405746459961 0.0
   vertex 0.17838302612304688 -0.0904405746459961 0.04
  endloop
 endfacet
 facet normal 0.9013565182685852 -0.4330779016017914 0.0
  outer loop
   vertex 0.17838302612304688 -0.0904405746459961 0.04
   vertex 0.17838302612304688 -0.0904405746459961 0.0
   vertex 0.1820775604248047 -0.08275121307373047 0.04
  endloop
 endfacet
 facet normal 0.9013565182685852 -0.4330779016017914 0.0
  outer loop
   vertex 0.17838302612304688 -0.0904405746459961 0.0
   vertex 0.1820775604248047 -0.08275121307373047 0.0
   vertex 0.1820775604248047 -0.08275121307373047 0.04
  endloop
 endfacet
 facet normal 0.9190054535865784 -0.3942449390888214 0.0
  outer loop
   vertex 0.1820775604248047 -0.08275121307373047 0.0
   vertex 0.18544081115722658 -0.07491130065917968 0.0
   vertex 0.1820775604248047 -0.08275121307373047 0.04
  endloop
 endfacet
 facet normal 0.9190054535865784 -0.3942449390888214 0.0
  outer loop
   vertex 0.1820775604248047 -0.08275121307373047 0.04
   vertex 0.18544081115722658 -0.07491130065917968 0.0
   vertex 0.18544081115722658 -0.07491130065917968 0.04
  endloop
 endfacet
 facet normal 0.9349812865257263 -0.35469722747802734 0.0
  outer loop
   vertex 0.18544081115722658 -0.07491130065917968 0.04
   vertex 0.18544081115722658 -0.07491130065917968 0.0
   vertex 0.18846669006347658 -0.06693508911132813 0.04
  endloop
 endfacet
 facet normal 0.9349812865257263 -0.35469722747802734 0.0
  outer loop
   vertex 0.18544081115722658 -0.07491130065917968 0.0
   vertex 0.18846669006347658 -0.06693508911132813 0.0
   vertex 0.18846669006347658 -0.06693508911132813 0.04
  endloop
 endfacet
 facet normal 0.9492565393447876 -0.31450289487838745 0.0
  outer loop
   vertex 0.18846669006347658 -0.06693508911132813 0.0
   vertex 0.19114967346191405 -0.05883710479736328 0.0
   vertex 0.18846669006347658 -0.06693508911132813 0.04
  endloop
 endfacet
 facet normal 0.9492565393447876 -0.31450289487838745 0.0
  outer loop
   vertex 0.18846669006347658 -0.06693508911132813 0.04
   vertex 0.19114967346191405 -0.05883710479736328 0.0
   vertex 0.19114967346191405 -0.05883710479736328 0.04
  endloop
 endfacet
 facet normal 0.9618054032325745 -0.2737339735031128 0.0
  outer loop
   vertex 0.19114967346191405 -0.05883710479736328 0.04
   vertex 0.19114967346191405 -0.05883710479736328 0.0
   vertex 0.19348486328125 -0.05063206481933594 0.04
  endloop
 endfacet
 facet normal 0.9618054032325745 -0.2737339735031128 0.0
  outer loop
   vertex 0.19114967346191405 -0.05883710479736328 0.0
   vertex 0.19348486328125 -0.05063206481933594 0.0
   vertex 0.19348486328125 -0.05063206481933594 0.04
  endloop
 endfacet
 facet normal 0.9726032614707947 -0.23247143626213074 0.0
  outer loop
   vertex 0.19348486328125 -0.05063206481933594 0.0
   vertex 0.19546804809570312 -0.04233490753173828 0.0
   vertex 0.19348486328125 -0.05063206481933594 0.04
  endloop
 endfacet
 facet normal 0.9726032614707947 -0.23247143626213074 0.0
  outer loop
   vertex 0.19348486328125 -0.05063206481933594 0.04
   vertex 0.19546804809570312 -0.04233490753173828 0.0
   vertex 0.19546804809570312 -0.04233490753173828 0.04
  endloop
 endfacet
 facet normal 0.9816324710845947 -0.1907815784215927 0.0
  outer loop
   vertex 0.19546804809570312 -0.04233490753173828 0.04
   vertex 0.19546804809570312 -0.04233490753173828 0.0
   vertex 0.1970955810546875 -0.03396072769165039 0.04
  endloop
 endfacet
 facet normal 0.9816324710845947 -0.1907815784215927 0.0
  outer loop
   vertex 0.19546804809570312 -0.04233490753173828 0.0
   vertex 0.1970955810546875 -0.03396072769165039 0.0
   vertex 0.1970955810546875 -0.03396072769165039 0.04
  endloop
 endfacet
 facet normal 0.9888750910758972 -0.14874808490276337 0.0
  outer loop
   vertex 0.1970955810546875 -0.03396072769165039 0.04
   vertex 0.19836453247070313 -0.025524757385253907 0.0
   vertex 0.19836453247070313 -0.025524757385253907 0.04
  endloop
 endfacet
 facet normal 0.9943190813064575 -0.10644108802080154 0.0
  outer loop
   vertex 0.19836453247070313 -0.025524757385253907 0.04
   vertex 0.19836453247070313 -0.025524757385253907 0.0
   vertex 0.19927256774902344 -0.017042348861694336 0.04
  endloop
 endfacet
 facet normal 0.9888750910758972 -0.14874808490276337 0.0
  outer loop
   vertex 0.1970955810546875 -0.03396072769165039 0.0
   vertex 0.19836453247070313 -0.025524757385253907 0.0
   vertex 0.1970955810546875 -0.03396072769165039 0.04
  endloop
 endfacet
 facet normal 0.9943190813064575 -0.10644108802080154 0.0
  outer loop
   vertex 0.19836453247070313 -0.025524757385253907 0.0
   vertex 0.19927256774902344 -0.017042348861694336 0.0
   vertex 0.19927256774902344 -0.017042348861694336 0.04
  endloop
 endfacet
 facet normal 0.9979535937309265 -0.06394262611865997 0.0
  outer loop
   vertex 0.19927256774902344 -0.017042348861694336 0.04
   vertex 0.19981805419921875 -0.00852893352508545 0.0
   vertex 0.19981805419921875 -0.00852893352508545 0.04
  endloop
 endfacet
 facet normal 0.9997725486755371 -0.021327920258045197 0.0
  outer loop
   vertex 0.19981805419921875 -0.00852893352508545 0.04
   vertex 0.19981805419921875 -0.00852893352508545 0.0
   vertex 0.2 -4.899999880131866e-17 0.04
  endloop
 endfacet
 facet normal 0.9979535937309265 -0.06394262611865997 0.0
  outer loop
   vertex 0.19927256774902344 -0.017042348861694336 0.0
   vertex 0.19981805419921875 -0.00852893352508545 0.0
   vertex 0.19927256774902344 -0.017042348861694336 0.04
  endloop
 endfacet
 facet normal 0.9997725486755371 -0.021327920258045197 0.0
  outer loop
   vertex 0.19981805419921875 -0.00852893352508545 0.0
   vertex 0.2 -4.899999880131866e-17 0.0
   vertex 0.2 -4.899999880131866e-17 0.04
  endloop
 endfacet
endsolid patch_0_0
